<?xml version="1.0" standalone="no"?>
<!DOCTYPE svg PUBLIC "-//W3C//DTD SVG 1.1//EN" "http://www.w3.org/Graphics/SVG/1.1/DTD/svg11.dtd" >
<svg xmlns="http://www.w3.org/2000/svg">
<metadata>Generated by IcoMoon</metadata>
<defs>
<font id="iconsadmin" horiz-adv-x="512">
<font-face units-per-em="512" ascent="480" descent="-32" />
<missing-glyph horiz-adv-x="512" />
<glyph unicode="&#x20;" d="" horiz-adv-x="256" />
<glyph unicode="&#xe000;" d="M256.006-32c-141.168 0-256.006 114.837-256.006 255.994s114.838 256.006 256.006 256.006 256.006-114.837 256.006-256.006-114.849-255.994-256.006-255.994zM256.006 462.639c-131.585 0-238.645-107.060-238.645-238.645s107.059-238.645 238.645-238.645 238.645 107.060 238.645 238.645-107.060 238.645-238.645 238.645zM363.806 215.325h-215.601c-4.792 0-8.68 3.889-8.68 8.68s3.889 8.68 8.68 8.68h215.601c4.791 0 8.68-3.889 8.68-8.68s-3.889-8.68-8.68-8.68zM256.006 107.525c-4.792 0-8.68 3.889-8.68 8.68v215.589c0 4.792 3.889 8.68 8.68 8.68s8.68-3.889 8.68-8.68v-215.589c0-4.791-3.889-8.68-8.68-8.68z" />
<glyph unicode="&#xe001;" d="M421.006 185.26c-6.824 6.723-21.957 10.283-44.986 10.586-15.589 0.172-34.351-1.201-54.085-3.964-8.837 5.099-17.945 10.647-25.094 17.329-19.231 17.958-35.284 42.886-45.288 70.297 0.652 2.56 1.207 4.81 1.724 7.106 0 0 10.833 61.53 7.965 82.333-0.395 2.853-0.637 3.681-1.404 5.898l-0.941 2.417c-2.947 6.796-8.724 13.997-17.782 13.604l-5.458 0.172c-10.1 0-18.332-5.166-20.493-12.887-6.569-24.217 0.209-60.446 12.491-107.369l-3.144-7.643c-8.794-21.438-19.815-43.030-29.539-62.079l-1.264-2.477c-10.23-20.020-19.512-37.014-27.927-51.411l-8.688-4.594c-0.632-0.334-15.522-8.209-19.014-10.322-29.628-17.69-49.261-37.771-52.518-53.708-1.036-5.085-0.265-11.593 5.007-14.606l8.403-4.229c3.645-1.826 7.489-2.751 11.427-2.751 21.102 0 45.6 26.286 79.348 85.183 38.965 12.685 83.327 23.229 122.207 29.045 29.629-16.684 66.071-28.272 89.071-28.272 4.084 0 7.605 0.39 10.466 1.147 4.411 1.168 8.129 3.684 10.396 7.097 4.463 6.716 5.367 15.966 4.156 25.438-0.362 2.811-2.607 6.287-5.036 8.66zM105.823 72.976c3.848 10.521 19.080 31.322 41.602 49.778 1.416 1.148 4.904 4.416 8.097 7.451-23.551-37.562-39.323-52.533-49.699-57.229zM239.217 380.157c6.783 0 10.642-17.097 10.962-33.127s-3.429-27.28-8.079-35.604c-3.851 12.324-5.713 31.75-5.713 44.452 0 0-0.283 24.279 2.83 24.279zM199.426 161.253c4.725 8.458 9.641 17.378 14.665 26.839 12.246 23.158 19.979 41.278 25.739 56.173 11.455-20.842 25.722-38.56 42.493-52.756 2.092-1.771 4.309-3.551 6.637-5.325-34.105-6.748-63.582-14.955-89.534-24.931zM414.452 163.174c-2.077-1.299-8.027-2.050-11.854-2.050-12.353 0-27.636 5.647-49.062 14.833 8.233 0.609 15.781 0.919 22.55 0.919 12.391 0 16.060 0.054 28.175-3.036s12.268-9.367 10.191-10.666zM451.716 380.285l-71.432 71.431c-15.556 15.556-46.284 28.284-68.284 28.284h-240c-22 0-40-18-40-40v-432c0-22 18-40 40-40h368c22 0 40 18 40 40v304c0 22-12.728 52.729-28.284 68.285zM429.089 357.657c1.565-1.565 3.125-3.487 4.64-5.657h-81.729v81.728c2.17-1.515 4.092-3.075 5.657-4.64l71.432-71.431zM448 8c0-4.336-3.664-8-8-8h-368c-4.336 0-8 3.664-8 8v432c0 4.336 3.664 8 8 8h240c2.416 0 5.127-0.305 8-0.852v-127.148h127.148c0.547-2.873 0.852-5.583 0.852-8v-304z" />
<glyph unicode="&#xe002;" d="M136.896 204.656l119.104-119.104 119.104 119.104-9.456 9.472-102.96-102.952v338.616h-13.376v-338.616l-102.944 102.952zM283.24 369.496v-8.896h149.504v-353.488h-353.48v353.488h149.496v8.896h-158.392v-371.288h371.264v371.288z" />
<glyph unicode="&#xe003;" d="M512 0v-32h-512v512h32v-96h32v-32h-32v-64h32v-32h-32v-64h32v-32h-32v-64h32v-32h-32v-64h480zM160 192h-64v-160h64v160zM256 288h-64v-256h64v256zM352 384h-64v-352h64v352zM448 480h-64v-448h64v448z" />
<glyph unicode="&#xe004;" d="M407.429 329.646l-52.045 52.040-229.401-229.401-4.992-57.037 24.038 2.104 0.123-0.123 0.143 0.144 32.732 2.867 229.401 229.406zM153.098 164.915l168.801 168.801 5.883-5.883-168.802-168.801-5.883 5.883zM335.022 320.594l13.123-13.123-168.802-168.802-13.123 13.123 168.802 168.801zM355.385 300.226l4.070-4.071-168.796-168.801-4.071 4.070 168.796 168.802zM329.139 340.956l4.075 4.070 37.56-37.56-4.070-4.071-37.565 37.561zM148.894 107.971l-15.181 15.181 2.15 24.53 9.994 9.994 37.56-37.56-9.994-9.994-24.53-2.151z" />
<glyph unicode="&#xe005;" d="M264.552 54.776c-3.152 0-6.080 0.84-8.56 2.328-2.456-1.488-5.4-2.328-8.56-2.328-1.096 0-2.208 0.248-3.224 0.752l-20.48 10.152h-177.24c-8.72 0-15.832 6.592-15.832 14.704v298.12c0 8.128 7.112 14.72 15.832 14.72h177.736c9.776 0 23.952-3.776 32.264-15.76 9.456 11.984 25.56 15.76 36.568 15.76h172.48c8.72 0 15.808-6.592 15.808-14.72v-298.128c0-8.112-7.088-14.704-15.808-14.704h-174.368l-23.704-10.296c-0.92-0.416-1.904-0.6-2.912-0.6zM256.040 76.888c4.008 0 7.232-3.384 7.232-7.408 0 0.072 0.072 0.072 0.232 0.024l23.256 10.104c0.888 0.392 1.896 0.592 2.88 0.592h175.88c0.84 0 1.288 0.384 1.36 0.48l-0.080 297.824c0-0.184-0.424 0.176-1.264 0.176h-172.24c-1.328 0.144-9.304-0.104-16.832-3.68-8.888-4.208-13.184-11.376-13.184-21.928 0-4.008-3.256-7.264-7.28-7.264-4 0-7.264 3.248-7.264 7.264 0 24.384-20.256 25.608-24.328 25.608h-177.92c-0.848 0-1.288-0.368-1.352-0.464l0.064-297.816c0 0.176 0.448-0.184 1.288-0.192h178.952c1.12 0 2.232-0.248 3.224-0.752l19.92-9.864c0.056 0.040 0.12 0.088 0.152 0.136 0.032 0.536 0.104 1.072 0.224 1.584 0.704 3.24 3.584 5.576 7.080 5.576zM248.736 368.664h14.536v-309.048h-8z" />
<glyph unicode="&#xe006;" d="M418.714 97.479c-70.121 25.56-92.536 47.115-92.536 93.269 0 27.711 21.413 18.659 30.811 69.404 3.902 21.049 22.813 0.341 26.43 48.396 0 19.154-10.32 23.91-10.32 23.91s5.245 28.342 7.299 50.153c2.543 27.176-15.702 97.388-113.021 97.388s-115.576-70.213-113.021-97.388c2.054-21.811 7.299-50.153 7.299-50.153s-10.32-4.756-10.32-23.911c3.613-48.054 22.523-27.346 26.425-48.396 9.41-50.739 30.811-41.694 30.811-69.404 0-46.154-22.403-67.709-92.524-93.269-70.349-25.634-116.047-51.763-116.047-69.592 0-17.812 0-59.887 0-59.887h534.755c0 0 0 42.075 0 59.887 0 17.829-45.699 43.958-116.042 69.592z" horiz-adv-x="535" />
<glyph unicode="&#xe007;" d="M432.032 400.72v36.528h-15.36v-36.528h-55.352v36.528h-15.376v-36.528h-61.776v36.528h-15.368v-36.528h-64.144v36.528h-15.36v-36.528h-61.496v36.528h-15.376v-36.528h-49.984v-206.064h13.952v105.376h391.688v-275.344h-391.688v124.376h-13.952v-138.312h419.576v389.968h-49.984zM468.080 313.976h-391.688v72.816h36.032v-32.832h15.376v32.832h61.496v-32.832h15.36v32.832h64.144v-32.832h15.376v32.832h61.776v-32.832h15.376v32.832h55.352v-32.832h15.36v32.832h36.048v-72.816zM160 94.92l9.696-9.736 86.672 86.672-86.672 86.672-9.696-9.704 70.088-70.104h-200.104v-13.728h200.104z" />
<glyph unicode="&#xe008;" d="M431.424 413.712v36.184h-16.392v-36.176h-59v36.176h-16.384v-36.176h-65.832v36.176h-16.384v-36.176h-68.328v36.176h-16.384v-36.176h-65.544v36.176h-16.384v-36.176h-58.384v-415.608h447.184v415.6h-48.168zM464.728 12.976h-417.432v293.432h417.432v-293.432zM464.728 321.256h-417.432v77.592h43.488v-37.696h16.384v37.696h65.544v-37.696h16.384v37.696h68.328v-37.696h16.384v37.696h65.832v-37.696h16.384v37.696h59v-37.696h16.392v37.696h33.304v-77.592zM371.744 219.392l-10.936 12.184-121.032-108.544-71.256 72.296-11.656-11.52 82.192-83.4z" />
<glyph unicode="&#xe00b;" d="M302.84 433.528c-15.28 0-30.448-1.664-45.024-4.912 0 0-31.712 4.92-48.52 4.92-114.44 0-207.544-93.112-207.544-207.544 0-114.408 93.112-207.504 207.544-207.504 16.016 0 31.536 2 46.52 5.44 15.328-3.56 31.128-5.44 47.024-5.44 114.416 0 207.504 93.112 207.504 207.504 0.008 114.432-93.088 207.536-207.504 207.536zM218.288 129.288l-0.040-32.848h-19.88v31.576c-18.336 0.336-36.976 6.040-48.032 13.936l7.568 21.128c11.032-7.264 27.52-13.544 45.2-13.544 22.448 0 35.584 12.936 35.584 30.984 0 17.36-10.312 28.128-33.688 37.592-32.2 12.664-52.152 27.504-52.12 55 0 26.224 18.6 46.096 47.376 50.872v31.6h19.92l-0.032-30.704c18.672-0.592 31.616-5.68 41.072-11.040l-7.864-20.856c-6.64 3.776-19.616 11.072-39.84 11.072-24.32 0-31.44-14.552-31.44-27.496 0-16.112 9.648-24.32 37.144-36 32.544-13.32 48.976-29.432 48.976-57.552-0.008-25.256-17.36-48.672-49.904-53.72zM302.84 38.472c-1.592 0-3.152 0.2-4.704 0.264 70.048 33.376 118.664 104.64 118.664 187.248 0 82.664-48.64 153.944-118.688 187.28 1.6 0.032 3.16 0.28 4.736 0.28 103.44 0 187.512-84.152 187.512-187.552 0-103.432-84.096-187.52-187.52-187.52z" />
<glyph unicode="&#xe00c;" d="M443.642 350.677h-24.108v24.446c0 29.585-24.067 53.646-53.646 53.646h-288.007c-29.585 0-53.646-24.059-53.646-53.646v-168.883c0-29.586 24.067-53.646 53.646-53.646h24.117v-24.446c0-29.586 24.067-53.654 53.646-53.654h217.388l45.238-53.459c1.553-1.842 3.822-2.848 6.137-2.848 0.925 0 1.858 0.168 2.767 0.498 3.169 1.167 5.277 4.183 5.277 7.545v48.264h11.189c29.586 0 53.646 24.067 53.646 53.654v168.875c0.009 29.585-24.059 53.654-53.646 53.654zM77.882 168.68c-20.713 0-37.557 16.846-37.557 37.558v168.883c0 20.705 16.852 37.558 37.557 37.558h288c20.713 0 37.558-16.852 37.558-37.558v-24.446h-247.796c-29.585 0-53.646-24.067-53.646-53.654v-128.342h-24.117zM481.208 128.147c0-20.705-16.853-37.565-37.558-37.565h-19.233c-4.44 0-8.045-3.594-8.045-8.045v-34.349l-33.462 39.544c-1.529 1.81-3.774 2.848-6.137 2.848h-221.13c-20.713 0-37.558 16.861-37.558 37.565v168.875c0 20.713 16.852 37.565 37.558 37.565h288.007c20.713 0 37.558-16.853 37.558-37.565v-168.875z" />
<glyph unicode="&#xe00e;" d="M230.897 133.079c-2.581 0-5.171 0.983-7.148 2.964-3.947 3.947-3.947 10.337 0 14.285l69.991 69.986-69.99 69.99c-3.947 3.947-3.947 10.343 0 14.285 3.947 3.947 10.343 3.947 14.29 0l77.128-77.128c3.947-3.948 3.947-10.343 0-14.285l-77.127-77.133c-1.971-1.976-4.557-2.964-7.143-2.964z" />
<glyph unicode="&#xe00f;" d="M208.348 304.839l7.239 7.239 88.080-88.074-88.094-88.084-7.239 7.24 80.85 80.85-80.834 80.83z" />
<glyph unicode="&#xe010;" d="M88.4 292.912l366.776 103.704-16.64 58.856-394.624-111.584 14.416-50.976h-0.336v-300.376h410.096v300.376h-379.688zM441.84 404.056l-36.792-10.408 26.384 47.232 10.408-36.824zM425.032 440.416l-27.336-48.848-57.656-16.296 27.312 48.84 57.68 16.304zM360.016 422.032l-27.32-48.84-50.336-14.232 27.288 48.848 50.368 14.224zM302.312 405.728l-27.32-48.856-57.656-16.296 27.32 48.848 57.656 16.304zM237.32 387.352l-27.32-48.856-56-15.832 27.32 48.856 56 15.832zM173.976 369.44l-27.32-48.84-57.656-16.312 27.32 48.856 57.656 16.296zM108.96 351.072l-27.32-48.856-13.648-3.864-10.744 38.072 51.712 14.648zM451.2 282.12l-39.576-39.576h-59.928l39.592 39.576h59.912zM383.664 282.12l-39.568-39.576h-52.36l39.592 39.576h52.336zM323.704 282.12l-39.568-39.576h-59.936l39.576 39.576h59.928zM256.144 282.12l-39.6-39.576h-58.16l39.576 39.576h58.184zM190.336 282.12l-39.592-39.576h-59.912l39.568 39.576h59.936zM83.2 242.544h-14.416v39.576h53.992l-39.576-39.576zM457.288 3.328h-388.504v228.424h388.504v-228.424zM457.288 242.544h-38.032l38.032 38.016v-38.016z" />
<glyph unicode="&#xe011;" d="M249.887 84.291c-73.4 0-133.12 59.714-133.12 133.12 0 73.401 59.719 133.12 133.12 133.12 73.406 0 133.12-59.719 133.12-133.12 0-73.406-59.714-133.12-133.12-133.12zM249.887 340.291c-67.753 0-122.88-55.127-122.88-122.88s55.127-122.88 122.88-122.88 122.88 55.127 122.88 122.88-55.127 122.88-122.88 122.88zM240.482 181.863l-45.998 45.998 7.239 7.239 38.758-38.758 69.796 69.796 7.24-7.239z" />
<glyph unicode="&#xe012;" d="M179.78 139.099c-2.222 0-4.445 0.845-6.134 2.546-3.391 3.391-3.391 8.889 0 12.28l152.441 152.442c3.391 3.391 8.889 3.391 12.28 0s3.391-8.889 0-12.28l-152.453-152.441c-1.69-1.702-3.912-2.546-6.134-2.546zM332.221 139.099c-2.222 0-4.445 0.845-6.134 2.546l-152.453 152.442c-3.391 3.391-3.391 8.889 0 12.28s8.889 3.391 12.28 0l152.442-152.442c3.391-3.391 3.391-8.889 0-12.28-1.69-1.702-3.912-2.546-6.134-2.546zM256.006-32c-141.168 0-256.006 114.837-256.006 255.994s114.838 256.006 256.006 256.006 256.006-114.837 256.006-256.006-114.849-255.994-256.006-255.994zM256.006 462.639c-131.585 0-238.645-107.060-238.645-238.645s107.059-238.645 238.645-238.645 238.645 107.060 238.645 238.645-107.060 238.645-238.645 238.645z" />
<glyph unicode="&#xe013;" d="M383.576 325.608c-18.024 32.176-53.512 50.632-91.56 44.552-14.936 31.352-46.184 51.264-81.328 51.264-49.736 0-90.224-40.472-90.224-90.216 0-2.048 0.104-4.168 0.288-6.368-42.928-9.776-74.416-48.536-74.416-93.168 0-52.736 42.912-95.64 95.664-95.64h75.6v15.8h-75.6c-44.040 0-79.872 35.816-79.872 79.84 0 39.416 29.44 73.352 68.472 78.944 2.088 0.296 3.976 1.424 5.224 3.128 1.248 1.696 1.784 3.832 1.456 5.92-0.672 4.28-1 8.056-1 11.544 0 41.040 33.376 74.424 74.416 74.424 30.792 0 58-18.576 69.256-47.32 1.432-3.64 5.304-5.696 9.144-4.816 34.688 8.024 67.264-8.728 82.288-38.6 1.168-2.312 3.384-3.904 5.944-4.272 39.080-5.56 68.536-39.504 68.536-78.96 0-44.032-35.824-79.84-79.848-79.84h-100.672v-15.8h100.664c52.728 0 95.656 42.904 95.656 95.64 0 45.912-33.296 85.592-78.088 93.944zM279.104 99.032l-31.304-31.296v218.664c0 4.456-3.608 8.072-8.056 8.072-4.472 0-8.080-3.616-8.080-8.072v-218.928l-31.568 31.56c-3.136 3.16-8.24 3.16-11.4 0-3.16-3.144-3.16-8.264 0-11.424l45.056-45.064c1.584-1.576 3.656-2.36 5.696-2.36l0.144 0.016c0.064 0 0.104-0.016 0.104-0.016 2.136 0 4.2 0.816 5.744 2.36l45.056 45.064c3.176 3.16 3.176 8.28 0 11.424-3.152 3.152-8.264 3.152-11.392 0z" />
<glyph unicode="&#xe014;" d="M253.446 402.017c-139.98 0-253.446-87.264-253.446-194.959 0-52.795 27.333-100.793 71.706-135.886-2.573-35.794-11.191-79.582-36.145-103.172 49.675 0 100.442 31.115 132.533 55.446 26.671-7.33 55.368-11.346 85.353-11.346 139.98 0 253.446 87.225 253.446 194.958 0 107.695-113.466 194.958-253.446 194.958zM590.335 188.069c21.328 28.503 33.533 61.646 33.533 96.973 0 107.695-113.466 194.958-253.446 194.958-61.607 0-118.067-16.923-161.971-44.996 20.666 3.899 42.267 6.004 64.493 6.004 150.742 0 272.942-96.036 272.942-214.454 0-46.673-18.911-89.915-51.157-125.047 32.012-24.331 82.858-55.524 132.533-55.524-35.327 33.533-37.861 107.851-36.925 142.086z" horiz-adv-x="627" />
<glyph unicode="&#xe015;" d="M263.483 441.088v25.941h-14.934v-25.941h-198.758v-302.524h412.416v302.524h-198.725zM447.274 153.514h-382.55v272.64h382.55v-272.64zM260.889 122.573h-14.934v-67.43l-73.378-67.234 10.095-11.025 70.921 64.999 75.946-65.161 9.728 11.341-78.378 67.234zM130.654 283.017c6.725 0 12.655 3.422 16.162 8.627l61.927-24.217c-0.231-1.212-0.358-2.458-0.358-3.738 0-10.743 8.73-19.481 19.482-19.481 10.744 0 19.482 8.738 19.482 19.481 0 4.147-1.331 7.987-3.559 11.153l39.484 43.153c3.14-2.176 6.954-3.482 11.067-3.482 10.743 0 19.481 8.738 19.481 19.49 0 0.375-0.086 0.734-0.137 1.118l59 11.23c2.901-7.168 9.882-12.245 18.065-12.245 10.752 0 19.481 8.738 19.481 19.481 0 10.752-8.729 19.49-19.481 19.49-10.718 0-19.422-8.687-19.481-19.388l-59.418-11.315c-3.158 6.553-9.779 11.119-17.519 11.119-10.752 0-19.481-8.746-19.481-19.49 0-3.934 1.178-7.586 3.192-10.658l-39.629-43.324c-3.055 1.98-6.665 3.158-10.565 3.158-6.801 0-12.817-3.542-16.298-8.857l-61.85 24.192c0.264 1.28 0.418 2.611 0.418 3.976 0 10.743-8.763 19.49-19.482 19.49-10.752 0-19.481-8.747-19.481-19.49s8.746-19.473 19.498-19.473zM390.759 365.619c6.613 0 12.007-5.393 12.007-12.024 0-6.614-5.393-12.015-12.007-12.015-4.488 0-8.414 2.534-10.488 6.221l11.195 2.116c2.014 0.393 3.353 2.346 2.961 4.377-0.392 2.022-2.304 3.345-4.369 2.969l-11.17-2.125c0.76 5.897 5.777 10.479 11.87 10.479zM294.341 321.988c-2.176 0-4.156 0.614-5.939 1.622l7.433 8.115 10.505 1.997c-0.154-6.494-5.462-11.733-11.998-11.733zM294.341 346.026c4.053 0 7.637-2.031 9.796-5.12l-12.16-2.313-8.627-9.43c-0.657 1.476-1.024 3.115-1.024 4.847 0.009 6.613 5.376 12.015 12.015 12.015zM227.865 275.712c1.937 0 3.738-0.504 5.385-1.331l-5.751-6.263-8.687 3.397c2.193 2.543 5.41 4.198 9.054 4.198zM215.936 264.61l13.627-5.333 9.002 9.805c0.81-1.63 1.305-3.447 1.305-5.401 0-6.614-5.385-12.015-11.998-12.015s-12.006 5.393-12.006 12.015c-0.008 0.325 0.042 0.623 0.069 0.93zM130.654 314.513c6.639 0 12.006-5.393 12.006-12.015 0-0.401-0.077-0.776-0.102-1.169l-10.931 4.275c-1.937 0.76-4.079-0.196-4.838-2.125-0.76-1.92 0.205-4.088 2.116-4.839l10.649-4.164c-2.227-2.423-5.359-3.994-8.892-3.994-6.639 0-12.007 5.385-12.007 12.015-0.008 6.63 5.359 12.015 11.998 12.015z" />
<glyph unicode="&#xe016;" d="M400 224h-112v112c0 8.832-7.2 16-16 16-8.832 0-16-7.168-16-16v-112h-112c-8.832 0-16-7.168-16-16 0-8.8 7.168-16 16-16h112v-112c0-8.8 7.168-16 16-16 8.8 0 16 7.2 16 16v112h112c8.8 0 16 7.2 16 16 0 8.832-7.2 16-16 16z" />
<glyph unicode="&#xe017;" d="M256.139-32h-0.171c-141.096 0-255.925 114.829-255.968 255.968 0.043 141.182 114.893 256.032 256.032 256.032 68.403 0 132.687-26.62 181.038-74.983 48.363-48.352 74.972-112.614 74.951-180.984 0.032-68.371-26.557-132.655-74.887-181.028-48.341-48.363-112.614-75.005-180.995-75.005zM256.032 458.601c-129.338 0-234.59-105.252-234.633-234.633 0.043-129.337 105.274-234.568 234.59-234.568h0.161c62.647 0 121.548 24.406 165.845 68.735 44.286 44.329 68.659 103.231 68.627 165.898 0.022 62.646-24.363 121.548-68.681 165.856-44.308 44.318-103.231 68.713-165.909 68.713zM255.882 16.887h-0.043c-55.35 0.010-107.371 21.57-146.489 60.688s-60.657 91.139-60.645 146.457c-0.022 114.176 92.883 207.103 207.113 207.135 0 0 0.011 0 0.022 0 55.317 0 107.329-21.549 146.457-60.678 39.139-39.128 60.688-91.151 60.678-146.457 0.010-55.306-21.538-107.317-60.656-146.457s-91.129-60.688-146.435-60.688zM255.839 409.767c-0.011 0-0.011 0-0.022 0-102.417-0.032-185.736-83.35-185.714-185.736-0.010-49.615 19.302-96.254 54.376-131.327 35.074-35.084 81.735-54.408 131.36-54.418l0.043-10.7v10.7c49.593 0 96.222 19.334 131.306 54.418 35.074 35.095 54.397 81.734 54.387 131.327 0.010 49.593-19.313 96.233-54.408 131.317-35.084 35.095-81.724 54.418-131.327 54.418zM257.455 347.902c-2.953 0-5.35 2.397-5.35 5.35v24.492c0 2.953 2.397 5.35 5.35 5.35s5.35-2.396 5.35-5.35v-24.492c0-2.953-2.386-5.35-5.35-5.35zM291.266 343.387c-0.46 0-0.92 0.064-1.391 0.192-2.857 0.76-4.548 3.702-3.777 6.548l6.356 23.657c0.76 2.846 3.692 4.537 6.548 3.777s4.548-3.702 3.777-6.548l-6.356-23.657c-0.632-2.386-2.803-3.97-5.157-3.97zM322.745 330.279c-0.909 0-1.829 0.225-2.675 0.717-2.557 1.476-3.435 4.74-1.958 7.308l12.251 21.196c1.476 2.557 4.75 3.424 7.308 1.958 2.557-1.476 3.435-4.74 1.958-7.308l-12.251-21.196c-0.985-1.712-2.793-2.675-4.633-2.675zM349.761 309.469c-1.37 0-2.739 0.524-3.788 1.562-2.087 2.087-2.087 5.478 0 7.565l17.312 17.312c2.087 2.087 5.478 2.087 7.565 0s2.087-5.478 0-7.565l-17.312-17.312c-1.038-1.048-2.408-1.562-3.777-1.562zM370.476 282.366c-1.841 0-3.649 0.963-4.633 2.675-1.488 2.557-0.61 5.832 1.958 7.308l21.207 12.251c2.546 1.498 5.832 0.61 7.308-1.958 1.488-2.557 0.61-5.832-1.958-7.308l-21.207-12.251c-0.846-0.482-1.765-0.717-2.675-0.717zM383.476 250.834c-2.365 0-4.526 1.573-5.168 3.97-0.76 2.857 0.931 5.778 3.788 6.548l23.646 6.334c2.889 0.695 5.778-0.952 6.548-3.788 0.76-2.857-0.931-5.778-3.788-6.548l-23.646-6.334c-0.46-0.118-0.92-0.182-1.38-0.182zM387.852 217.002c-2.953 0-5.35 2.397-5.35 5.35 0 2.942 2.397 5.35 5.35 5.35l24.481 0.022c2.953 0 5.35-2.397 5.35-5.35 0-2.942-2.397-5.35-5.35-5.35l-24.481-0.022zM223.473 343.494c-2.364 0-4.526 1.573-5.168 3.959l-6.345 23.657c-0.76 2.868 0.931 5.788 3.787 6.559 2.889 0.685 5.788-0.931 6.559-3.787l6.345-23.657c0.76-2.868-0.931-5.788-3.787-6.559-0.471-0.107-0.931-0.171-1.391-0.171zM191.78 330.429c-1.84 0-3.649 0.963-4.633 2.675l-12.251 21.207c-1.488 2.557-0.61 5.832 1.958 7.308 2.547 1.498 5.832 0.61 7.308-1.958l12.251-21.207c1.488-2.557 0.61-5.832-1.958-7.308-0.845-0.482-1.766-0.717-2.675-0.717zM164.55 309.619c-1.369 0-2.739 0.524-3.787 1.562l-17.312 17.301c-2.087 2.087-2.087 5.478 0 7.565s5.478 2.087 7.565 0l17.312-17.302c2.087-2.087 2.087-5.478 0-7.564-1.038-1.038-2.407-1.562-3.777-1.562zM143.632 282.452c-0.91 0-1.829 0.225-2.675 0.717l-21.196 12.251c-2.557 1.476-3.434 4.74-1.958 7.308 1.477 2.557 4.751 3.424 7.308 1.958l21.196-12.251c2.557-1.476 3.434-4.74 1.958-7.308-0.984-1.712-2.792-2.675-4.633-2.675zM130.461 250.814c-0.46 0-0.92 0.064-1.381 0.182l-23.657 6.334c-2.868 0.771-4.558 3.702-3.787 6.548 0.77 2.857 3.766 4.483 6.548 3.787l23.657-6.334c2.868-0.771 4.558-3.702 3.787-6.548-0.642-2.386-2.804-3.97-5.168-3.97zM125.945 216.831h-24.502c-2.953 0-5.35 2.397-5.35 5.35s2.397 5.35 5.35 5.35h24.492c2.953 0 5.35-2.397 5.35-5.35s-2.386-5.35-5.339-5.35zM83.939 121.016c-2.439 0-4.879 0.824-6.901 2.525-4.516 3.798-5.082 10.55-1.263 15.076 45.11 53.434 111.041 84.078 180.867 84.078 0.032 0 0.053 0 0.075 0 69.858 0 135.8-30.644 180.921-84.067 3.809-4.515 3.252-11.277-1.262-15.076-4.548-3.841-11.288-3.252-15.076 1.262-41.044 48.608-101.026 76.481-164.582 76.481-0.022 0-0.043 0-0.064 0-63.535 0-123.484-27.873-164.54-76.492-2.108-2.493-5.125-3.788-8.174-3.788zM258.921 102.024c-19.794 0-35.887 16.092-35.887 35.876s16.093 35.876 35.887 35.876c19.773 0 35.865-16.092 35.865-35.876s-16.093-35.876-35.865-35.876zM258.921 152.366c-7.982 0-14.488-6.484-14.488-14.476s6.494-14.476 14.488-14.476c7.971 0 14.466 6.484 14.466 14.476s-6.495 14.476-14.466 14.476zM258.921 152.783c-5.917 0-10.7 4.783-10.7 10.7v148.286c0 5.917 4.782 10.7 10.7 10.7s10.7-4.782 10.7-10.7v-148.286c0-5.917-4.783-10.7-10.7-10.7zM258.921 53.479c-5.917 0-10.7 4.783-10.7 10.7v48.544c0 5.917 4.782 10.7 10.7 10.7s10.7-4.783 10.7-10.7v-48.544c0-5.917-4.783-10.7-10.7-10.7z" />
<glyph unicode="&#xe018;" d="M438.857 218.38c-3.368 0-6.095-2.726-6.095-6.095v-137.598h-375.199v283.827h226.881c3.368 0 6.095 2.726 6.095 6.095s-2.726 6.095-6.095 6.095h-232.976c-3.368 0-6.095-2.726-6.095-6.095v-296.017c0-3.368 2.727-6.095 6.095-6.095h387.389c3.368 0 6.095 2.726 6.095 6.095v143.693c0 3.365-2.731 6.095-6.095 6.095zM466.574 282.267l-9.48 94.139c-0.017 0.162-0.073 0.309-0.094 0.471-0.024 0.159-0.012 0.317-0.045 0.476-0.036 0.179-0.114 0.337-0.159 0.516-0.086 0.345-0.187 0.686-0.309 1.016-0.114 0.305-0.24 0.594-0.378 0.882-0.151 0.313-0.309 0.61-0.488 0.902-0.166 0.273-0.346 0.533-0.536 0.788-0.199 0.268-0.414 0.524-0.638 0.772-0.216 0.236-0.439 0.451-0.675 0.666-0.252 0.224-0.504 0.435-0.772 0.634-0.256 0.187-0.512 0.361-0.784 0.524-0.281 0.171-0.573 0.329-0.87 0.471-0.293 0.138-0.594 0.264-0.898 0.374-0.3 0.11-0.606 0.207-0.918 0.288-0.333 0.086-0.671 0.155-1.016 0.207-0.309 0.049-0.613 0.082-0.93 0.098-0.361 0.021-0.724 0.021-1.089 0-0.175-0.008-0.346 0.017-0.524 0-0.163-0.017-0.309-0.073-0.467-0.094-0.163-0.024-0.317-0.012-0.479-0.044l-96.174-18.965c-5.506-1.085-9.086-6.428-8.001-11.93 0.955-4.844 5.202-8.196 9.956-8.196 0.654 0 1.313 0.065 1.975 0.195l67.486 13.308c-24.247-33.78-46.722-69.957-68.547-105.082-10.76-17.319-21.829-35.133-32.91-52.318l-108.353 92.697c-2.247 1.922-5.226 2.772-8.151 2.321s-5.51-2.154-7.075-4.665l-109.715-176.084c-2.966-4.762-1.511-11.029 3.251-13.995 1.674-1.041 3.527-1.536 5.364-1.536 3.389 0 6.705 1.699 8.635 4.787l103.464 166.058 108.186-92.55c2.214-1.897 5.156-2.747 8.038-2.337 2.889 0.414 5.466 2.048 7.067 4.49 13.308 20.313 26.608 41.72 39.464 62.415 22.37 36.006 45.45 73.090 70.226 107.272l7.151-71.001c0.529-5.238 4.941-9.143 10.094-9.143 0.337 0 0.683 0.017 1.028 0.053 5.583 0.553 9.651 5.534 9.090 11.118z" />
<glyph unicode="&#xe019;" d="M168.798 253.123c-11.975-0.207-18.879-12.004-18.879-27.615 0-15.73 7.127-26.945 18.993-27.152 12.158-0.216 19.216 11.625 19.216 27.627-0.004 14.775-6.941 27.351-19.33 27.14zM83.749 251.436c-3.564-0.057-5.856-0.435-7.204-0.8v-50.087c1.349-0.365 3.54-0.411 5.522-0.443 14.588-0.365 24.255 8.269 24.255 26.924 0.109 16.218-8.708 24.645-22.573 24.405zM302.551 41.822c0.589-0.033 1.166-0.086 1.764-0.086h134.095c15.685 0 28.445 12.764 28.445 28.445v310.857c0 15.681-12.76 28.445-28.445 28.445h-134.095c-0.594 0-1.175-0.057-1.764-0.085v37.103l-261.721-34.93v-372.159l261.721-35.832v38.241zM304.315 393.224h134.095c6.721 0 12.19-5.469 12.19-12.19v-310.857c0-6.721-5.469-12.19-12.19-12.19h-134.095c-0.601 0-1.183 0.094-1.764 0.179v99.385h120.507c2.978 0 5.388 2.406 5.388 5.38s-2.409 5.38-5.388 5.38h-120.507v33.024h120.507c2.978 0 5.388 2.409 5.388 5.38 0 2.974-2.409 5.384-5.388 5.384h-120.507v31.996h120.507c2.978 0 5.388 2.405 5.388 5.38s-2.409 5.38-5.388 5.38h-120.507v32.301h56.629c2.966 0 5.38 2.409 5.38 5.38 0 2.974-2.413 5.384-5.38 5.384h-56.629v95.127c0.581 0.085 1.158 0.179 1.764 0.179zM111.742 195.873c-7.692-6.673-19.245-9.602-33.117-9.236-8.192 0.219-13.93 0.93-17.811 1.593v74.399c5.722 1.158 13.239 1.914 21.252 2.117 13.515 0.354 22.414-2.080 29.46-7.603 7.659-5.921 12.499-15.572 12.499-29.517 0-15.116-5.181-25.466-12.284-31.752zM167.964 183.788c-23.065 0.613-36.238 18.757-36.238 41.375 0 23.796 14.539 41.964 37.538 42.573 24.637 0.65 38.421-18.143 38.421-41.134 0-27.315-16.315-43.439-39.721-42.813zM264.354 197.453c6.071-0.101 12.873 1.068 16.904 2.552l3.089-15.45c-3.771-1.715-12.183-3.43-23.015-3.137-30.041 0.796-45.096 19.216-45.096 43.077 0 28.571 20.642 45.019 47.063 45.714 10.459 0.276 18.493-1.58 22.134-3.304l-4.173-15.734c-4.157 1.613-9.899 3.068-17.038 2.95-15.786-0.264-27.851-9.651-27.851-28.522 0-16.981 10.252-27.843 27.986-28.148zM391.619 276.375l4.986 20.269c1.276 4.925 2.113 9.078 2.881 13.682h0.126c0.508-4.665 1.276-8.757 2.361-13.682l4.482-20.269h8.444l11.565 43.094h-7.993l-4.474-19.5c-1.15-5.242-2.178-10.163-2.942-14.897h-0.134c-0.634 4.669-1.532 9.464-2.617 14.58l-4.283 19.817h-8.249l-4.661-19.5c-1.223-5.433-2.446-10.549-3.141-15.088h-0.118c-0.703 4.283-1.731 9.785-2.82 15.022l-4.092 19.562h-8.375l10.553-43.094h8.501z" />
<glyph unicode="&#xe01a;" d="M407.875 268.534c-0.031 0.456-0.118 0.896-0.266 1.326-0.057 0.164-0.098 0.317-0.169 0.476-0.251 0.542-0.563 1.060-1.003 1.5l-138.183 138.183c-0.44 0.44-0.952 0.752-1.495 0.999-0.159 0.077-0.322 0.118-0.491 0.174-0.425 0.144-0.85 0.231-1.296 0.256-0.118 0.010-0.22 0.067-0.333 0.067h-141.118c-2.826 0-5.12-2.294-5.12-5.12v-364.8c0-2.832 2.294-5.12 5.12-5.12h279.296c2.832 0 5.12 2.288 5.12 5.12v226.622c0 0.112-0.057 0.21-0.062 0.317zM269.752 394.041l120.709-120.699h-120.709v120.699zM128.64 46.72v354.56h130.873v-133.064c0-2.826 2.294-5.12 5.12-5.12h133.064v-216.376h-269.056zM169.728 229.12h18.432v-10.24h-15.36zM216.32 229.12h140.288v-10.24h-138.24zM169.728 188.16h18.432v-10.24h-15.36zM216.32 188.16h140.288v-10.24h-138.24zM216.32 147.2h140.288v-10.24h-138.24zM169.728 147.2h18.432v-10.24h-15.36zM216.32 106.24h140.288v-10.24h-138.24zM169.728 106.24h18.432v-10.24h-15.36z" />
<glyph unicode="&#xe01b;" d="M439.744 277.878c-0.036 0.55-0.143 1.085-0.322 1.604-0.068 0.199-0.118 0.384-0.204 0.577-0.303 0.656-0.681 1.283-1.214 1.815l-167.181 167.181c-0.532 0.532-1.152 0.911-1.809 1.207-0.192 0.093-0.39 0.143-0.595 0.211-0.514 0.174-1.028 0.279-1.567 0.31-0.143 0.013-0.267 0.080-0.402 0.080h-170.73c-3.419 0-6.194-2.775-6.194-6.194v-441.351c0-3.426 2.775-6.194 6.194-6.194h337.904c3.426 0 6.194 2.769 6.194 6.194v274.177c0 0.136-0.068 0.254-0.074 0.384zM101.915 9.519v428.962h158.335v-160.987c0-3.419 2.776-6.194 6.194-6.194h160.987v-261.782h-325.515zM151.625 230.194h14.556v-12.389h-12.389zM200.25 230.194h177.47v-12.389h-173.442zM200.25 180.639h177.47v-12.389h-173.442zM151.625 180.639h14.556v-12.389h-12.389zM151.625 131.084h14.556v-12.389h-12.389zM200.25 131.084h177.47v-12.389h-173.442zM151.625 81.529h14.556v-12.389h-12.389zM200.25 81.529h177.47v-12.389h-173.442z" />
<glyph unicode="&#xe01c;" d="M452.608 281.65c-0.039 0.59-0.153 1.16-0.344 1.717-0.074 0.213-0.127 0.411-0.219 0.616-0.325 0.702-0.728 1.372-1.299 1.942l-178.883 178.883c-0.57 0.57-1.233 0.974-1.935 1.293-0.205 0.099-0.418 0.153-0.637 0.225-0.55 0.185-1.101 0.298-1.678 0.331-0.153 0.012-0.284 0.086-0.43 0.086h-182.682c-3.659 0-6.629-2.97-6.629-6.629v-472.248c0-3.666 2.969-6.628 6.629-6.628h361.559c3.666 0 6.628 2.962 6.628 6.628v293.37c0 0.146-0.074 0.272-0.079 0.411zM91.128-5.495v458.991h169.42v-172.256c0-3.659 2.969-6.629 6.628-6.629h172.256v-280.108h-348.303zM144.317 230.629h241.923v-13.256h-238.609zM144.317 177.603h241.923v-13.255h-238.609zM144.317 124.579h241.923v-13.255h-238.609zM144.317 71.555h241.923v-13.255h-238.609z" />
<glyph unicode="&#xe01d;" d="M406.268 331.918c-0.024 1.901-0.634 3.775-1.938 5.262l-79.909 91.286c-0.024 0.021-0.049 0.033-0.065 0.053-0.476 0.536-1.032 0.971-1.618 1.357-0.175 0.114-0.349 0.219-0.533 0.317-0.508 0.28-1.041 0.504-1.605 0.671-0.151 0.044-0.284 0.109-0.435 0.142-0.601 0.147-1.231 0.231-1.865 0.231h-196.397c-8.96 0-16.254-7.29-16.254-16.254v-381.969c0-8.96 7.294-16.254 16.254-16.254h268.19c8.96 0 16.254 7.294 16.254 16.254v297.992c0 0.305-0.049 0.606-0.082 0.91zM174.137 64.768c-7.436-6.18-18.745-9.111-32.573-9.111-8.269 0-14.137 0.524-18.111 1.048v69.327c5.864 0.938 13.507 1.459 21.573 1.459 13.405 0 22.097-2.406 28.895-7.538 7.334-5.445 11.942-14.137 11.942-26.596 0-13.511-4.921-22.833-11.727-28.591zM226.292 55.239c-20.943 0-33.198 15.819-33.198 35.921 0 21.151 13.507 36.969 34.349 36.969 21.683 0 33.507-16.238 33.507-35.714 0.004-23.145-14.027-37.177-34.657-37.177zM307.562 68.539c4.82 0 10.159 1.048 13.3 2.304l2.406-12.462c-2.93-1.459-9.525-3.039-18.111-3.039-24.406 0-36.969 15.185-36.969 35.296 0 24.089 17.176 37.494 38.538 37.494 8.269 0 14.555-1.678 17.38-3.141l-3.247-12.674c-3.247 1.365-7.745 2.621-13.406 2.621-12.674 0-22.516-7.644-22.516-23.349 0.008-14.141 8.391-23.048 22.625-23.048zM371.236 56.389l-6.388 12.779c-2.621 4.921-4.295 8.586-6.286 12.67h-0.207c-1.467-4.084-3.247-7.749-5.445-12.67l-5.863-12.779h-18.221l20.419 35.714-19.683 34.869h18.327l6.176-12.885c2.097-4.287 3.666-7.745 5.339-11.723h0.207c1.674 4.498 3.039 7.644 4.82 11.723l5.969 12.885h18.221l-19.895-34.45 20.943-36.137h-18.432zM121.905 155.262v259.722h188.269v-83.159c0-4.486 3.641-8.127 8.127-8.127h71.794v-168.436h-268.19zM146.7 115.245c-3.564 0-5.863-0.317-7.229-0.63v-46.178c1.365-0.313 3.564-0.313 5.555-0.313 14.454-0.106 23.873 7.854 23.873 24.71 0.101 14.657-8.484 22.41-22.199 22.41zM227.023 115.452c-10.785 0-17.063-10.26-17.063-23.978 0-13.82 6.494-23.56 17.177-23.56 10.785 0 16.961 10.26 16.961 23.974-0.004 12.674-6.075 23.564-17.075 23.564zM306.062 295.351v46.157h-158.476v-112.424h46.161v-46.157h158.476v112.425h-46.161zM193.748 237.21h-38.035v96.17h142.222v-38.030h-104.188v-58.141zM344.096 191.053h-142.222v96.171h142.222v-96.171zM219.429 269.954c0 5.052 1.82 6.872 5.567 6.872 0.74 0 2.56-1.82 2.56-6.872 0 0.564-1.82-1.256-2.56-1.256-3.748 0-5.567 1.82-5.567 1.256zM238.73 271.986h82.627v-4.063h-81.27zM219.429 250.315c0 4.374 1.82 6.193 5.567 6.193 0.74 0 2.56-1.82 2.56-6.193 0-0.115-1.82-1.934-2.56-1.934-3.748 0-5.567 1.82-5.567 1.934zM238.73 252.347h82.627v-4.064h-81.27zM219.429 229.181c0 5.19 1.82 7.010 5.567 7.010 0.74 0 2.56-1.82 2.56-7.010 0 0.702-1.82-1.118-2.56-1.118-3.748 0-5.567 1.82-5.567 1.118zM238.73 231.213h82.627v-4.064h-81.27zM219.429 209.2c0 4.853 1.82 6.673 5.567 6.673 0.74 0 2.56-1.82 2.56-6.673 0 0.365-1.82-1.454-2.56-1.454-3.748 0-5.567 1.82-5.567 1.454zM238.73 211.233h82.627v-4.063h-81.27z" />
<glyph unicode="&#xe01e;" d="M384 160v64h-160v64h160v64l96-96-96-96zM352 192v-128h-160v-96l-192 96v416h352v-160h-32v128h-256l128-64v-288h128v96h32z" />
<glyph unicode="&#xe01f;" d="M414.72 224c0 40.499-15.288 79.079-43.054 108.631-29.926 31.852-70.329 49.572-113.899 50.043-1.382 0.635-2.944 0.63-4.311-0.025-43.28-0.676-83.405-18.391-113.121-50.017-27.766-29.553-43.054-68.132-43.054-108.631 0-41.385 15.872-80.569 44.682-110.341 29.558-30.546 69.12-47.652 111.524-48.313 0.625-0.266 1.296-0.435 2.007-0.435 0.717 0 1.423 0.169 2.089 0.404 42.747 0.42 82.642 17.546 112.45 48.338 28.815 29.778 44.688 68.962 44.688 110.346zM366.228 124.585c-1.413 1.367-2.913 2.622-4.373 3.932-1.065 0.957-2.104 1.945-3.195 2.873-3.087 2.627-6.257 5.135-9.518 7.511-0.272 0.195-0.522 0.42-0.788 0.615-3.558 2.55-7.24 4.925-10.998 7.173-1.127 0.671-2.284 1.27-3.42 1.915-1.884 1.065-3.738 2.181-5.668 3.17 0.343 0.896 0.65 1.813 0.978 2.709 0.425 1.142 0.845 2.284 1.244 3.43 0.635 1.828 1.234 3.666 1.817 5.509 0.343 1.096 0.702 2.186 1.024 3.282 0.61 2.048 1.168 4.111 1.705 6.18 0.236 0.906 0.502 1.808 0.722 2.714 0.743 2.99 1.413 5.995 2.012 9.026 0.031 0.133 0.046 0.272 0.072 0.404 0.563 2.887 1.060 5.796 1.495 8.714 0.144 0.978 0.256 1.966 0.384 2.949 0.281 2.089 0.548 4.183 0.763 6.293 0.113 1.162 0.205 2.329 0.307 3.497 0.164 1.956 0.317 3.917 0.425 5.883 0.067 1.214 0.118 2.437 0.164 3.656 0.036 0.957 0.108 1.904 0.128 2.862h62.884c-1.188-35.093-14.597-68.219-38.164-94.295zM310.892 138.158c-1.321-2.56-2.724-5.053-4.158-7.531-0.584-1.009-1.127-2.043-1.731-3.041-2.079-3.43-4.26-6.784-6.553-10.041-0.379-0.533-0.793-1.029-1.178-1.562-1.95-2.693-3.947-5.335-6.041-7.89-0.845-1.034-1.741-2.022-2.611-3.031-1.7-1.981-3.42-3.938-5.207-5.822-1.019-1.080-2.074-2.125-3.123-3.175-1.726-1.726-3.476-3.405-5.264-5.038-1.127-1.019-2.253-2.027-3.399-3.015-1.833-1.572-3.707-3.077-5.596-4.551-1.162-0.901-2.309-1.813-3.492-2.673-0.461-0.338-0.952-0.635-1.413-0.967v78.961c0.599-0.021 1.209-0.021 1.813-0.051 0.988-0.046 1.976-0.103 2.959-0.164 1.603-0.108 3.21-0.24 4.803-0.394 0.973-0.098 1.956-0.19 2.923-0.307 1.69-0.2 3.364-0.44 5.038-0.697 0.845-0.128 1.695-0.24 2.539-0.384 2.325-0.394 4.639-0.845 6.938-1.357 0.169-0.041 0.343-0.067 0.522-0.108 2.462-0.553 4.915-1.183 7.353-1.869 0.773-0.215 1.546-0.466 2.32-0.697 1.664-0.502 3.328-1.009 4.982-1.567 0.906-0.307 1.808-0.635 2.704-0.962 1.521-0.543 3.036-1.111 4.541-1.71 0.916-0.363 1.828-0.738 2.739-1.116 0.543-0.231 1.086-0.486 1.628-0.722-0.666-1.479-1.331-2.964-2.033-4.418-0.666-1.362-1.31-2.75-2.002-4.101zM228.045 99.051c-1.792 1.884-3.518 3.845-5.222 5.827-0.86 1.003-1.756 1.971-2.596 2.995-2.32 2.832-4.562 5.745-6.713 8.75-0.169 0.231-0.348 0.445-0.517 0.676-2.304 3.251-4.48 6.605-6.569 10.030-0.661 1.086-1.26 2.217-1.894 3.313-1.387 2.391-2.75 4.798-4.024 7.26-0.707 1.372-1.362 2.77-2.032 4.158-0.702 1.444-1.362 2.913-2.023 4.377 0.542 0.24 1.081 0.497 1.623 0.727 0.958 0.404 1.915 0.798 2.873 1.183 1.495 0.594 2.995 1.168 4.506 1.715 0.922 0.333 1.843 0.671 2.77 0.988 1.664 0.563 3.333 1.086 5.012 1.592 0.778 0.236 1.556 0.491 2.345 0.717 2.458 0.697 4.935 1.341 7.429 1.904 0.159 0.036 0.322 0.062 0.487 0.098 2.34 0.527 4.695 0.983 7.055 1.392 0.839 0.138 1.69 0.256 2.53 0.384 1.705 0.266 3.41 0.512 5.125 0.717 0.978 0.113 1.961 0.21 2.944 0.307 1.618 0.159 3.236 0.297 4.864 0.404 0.999 0.067 2.002 0.123 3.006 0.169 0.619 0.031 1.239 0.031 1.858 0.051v-79.452c-0.609 0.43-1.239 0.819-1.843 1.26-1.229 0.896-2.432 1.822-3.635 2.76-1.849 1.433-3.671 2.908-5.458 4.434-1.178 1.009-2.35 2.027-3.507 3.082-1.767 1.603-3.492 3.267-5.191 4.962-1.070 1.060-2.155 2.115-3.2 3.221zM186.189 175.283c-0.24 0.921-0.502 1.833-0.732 2.76-0.64 2.606-1.229 5.228-1.756 7.859-0.041 0.22-0.102 0.435-0.143 0.656-0.563 2.873-1.054 5.755-1.49 8.658-0.128 0.87-0.226 1.751-0.343 2.627-0.272 2.033-0.532 4.070-0.743 6.118-0.113 1.096-0.2 2.197-0.292 3.292-0.159 1.858-0.297 3.722-0.405 5.591-0.066 1.168-0.118 2.329-0.164 3.497-0.030 0.845-0.036 1.695-0.061 2.539h70.82v-49.802c-0.738-0.026-1.459-0.087-2.196-0.118-1.081-0.051-2.166-0.108-3.246-0.179-1.751-0.108-3.497-0.261-5.238-0.43-1.029-0.103-2.058-0.195-3.088-0.317-1.905-0.226-3.794-0.502-5.683-0.793-0.834-0.128-1.674-0.236-2.509-0.374-2.703-0.466-5.392-0.988-8.064-1.592-0.307-0.072-0.604-0.159-0.911-0.231-2.361-0.548-4.715-1.152-7.050-1.813-0.896-0.256-1.787-0.538-2.678-0.809-1.741-0.527-3.482-1.065-5.207-1.654-1.004-0.338-2.002-0.707-2.995-1.065-1.618-0.584-3.226-1.198-4.828-1.838-1.004-0.399-2.002-0.809-3-1.229-0.578-0.246-1.167-0.466-1.746-0.722-0.272 0.717-0.563 1.423-0.829 2.14-0.394 1.065-0.778 2.135-1.152 3.205-0.604 1.731-1.178 3.471-1.726 5.217-0.327 1.045-0.666 2.084-0.978 3.134-0.558 1.879-1.070 3.774-1.566 5.673zM180.265 234.716c0.102 1.813 0.231 3.614 0.379 5.412 0.087 1.040 0.164 2.078 0.266 3.118 0.195 1.966 0.43 3.927 0.686 5.883 0.107 0.834 0.2 1.674 0.317 2.509 0.399 2.775 0.85 5.54 1.367 8.284 0.061 0.327 0.143 0.65 0.21 0.978 0.471 2.412 0.978 4.813 1.546 7.199 0.215 0.926 0.466 1.843 0.696 2.765 0.451 1.787 0.917 3.574 1.418 5.345 0.297 1.040 0.609 2.069 0.922 3.098 0.502 1.654 1.019 3.303 1.566 4.941 0.353 1.055 0.712 2.11 1.081 3.159 0.215 0.615 0.456 1.224 0.681 1.833 0.589-0.261 1.183-0.487 1.772-0.743 1.008-0.435 2.023-0.855 3.031-1.27 1.638-0.671 3.282-1.306 4.935-1.92 1.004-0.368 2.012-0.743 3.021-1.095 1.756-0.61 3.528-1.173 5.304-1.715 0.906-0.276 1.808-0.573 2.714-0.839 2.325-0.671 4.665-1.275 7.014-1.833 0.363-0.087 0.722-0.194 1.085-0.276 2.714-0.63 5.453-1.173 8.202-1.649 0.839-0.144 1.685-0.251 2.524-0.389 1.925-0.302 3.856-0.589 5.801-0.825 1.044-0.123 2.099-0.22 3.149-0.327 1.767-0.174 3.538-0.327 5.32-0.445 1.101-0.071 2.212-0.133 3.313-0.185 0.763-0.036 1.52-0.102 2.284-0.128v-46.48h-70.809c0.020 0.778 0.025 1.561 0.056 2.34 0.041 1.085 0.092 2.171 0.149 3.256zM199.399 307.845c1.28 2.57 2.662 5.074 4.055 7.562 0.64 1.142 1.234 2.309 1.894 3.43 2.105 3.564 4.311 7.040 6.646 10.414 0.256 0.364 0.537 0.702 0.793 1.065 2.105 2.99 4.286 5.904 6.559 8.724 0.87 1.080 1.797 2.094 2.688 3.149 1.731 2.038 3.476 4.060 5.289 6 1.075 1.147 2.191 2.243 3.292 3.353 1.736 1.746 3.492 3.461 5.294 5.115 1.188 1.091 2.401 2.15 3.625 3.2 1.817 1.567 3.671 3.077 5.555 4.546 1.26 0.978 2.519 1.956 3.804 2.893 0.65 0.476 1.326 0.901 1.987 1.362v-82.755c-0.65 0.021-1.3 0.026-1.951 0.057-1.019 0.046-2.038 0.107-3.056 0.174-1.674 0.113-3.338 0.256-5.002 0.42-0.983 0.103-1.966 0.195-2.949 0.317-1.767 0.215-3.523 0.471-5.279 0.748-0.845 0.133-1.69 0.246-2.53 0.394-2.401 0.42-4.792 0.901-7.163 1.438-0.174 0.036-0.348 0.067-0.522 0.108-2.555 0.589-5.089 1.264-7.608 1.992-0.748 0.215-1.495 0.466-2.238 0.696-1.762 0.537-3.518 1.095-5.258 1.705-0.906 0.317-1.802 0.656-2.703 0.988-1.582 0.583-3.159 1.193-4.726 1.833-0.932 0.384-1.858 0.773-2.78 1.173-0.619 0.272-1.229 0.563-1.849 0.845 0.676 1.572 1.357 3.138 2.073 4.685 0.686 1.465 1.341 2.934 2.058 4.368zM284.15 347.971c1.813-1.946 3.558-3.963 5.289-6.011 0.891-1.055 1.813-2.079 2.673-3.159 2.115-2.637 4.142-5.361 6.103-8.141 0.399-0.563 0.834-1.095 1.229-1.664 2.34-3.394 4.562-6.896 6.671-10.481 0.553-0.947 1.050-1.935 1.592-2.887 1.5-2.668 2.969-5.356 4.337-8.115 0.676-1.357 1.29-2.745 1.93-4.122 0.748-1.608 1.449-3.241 2.151-4.88-0.584-0.256-1.162-0.532-1.746-0.784-0.947-0.405-1.894-0.798-2.846-1.183-1.521-0.614-3.046-1.198-4.582-1.762-0.921-0.338-1.833-0.681-2.76-0.999-1.69-0.578-3.394-1.116-5.099-1.633-0.773-0.236-1.546-0.492-2.325-0.717-2.478-0.707-4.982-1.362-7.495-1.94-0.226-0.051-0.45-0.087-0.676-0.138-2.299-0.517-4.613-0.973-6.938-1.382-0.845-0.149-1.7-0.261-2.55-0.394-1.721-0.266-3.446-0.522-5.181-0.727-0.978-0.118-1.966-0.215-2.954-0.313-1.634-0.164-3.277-0.302-4.921-0.409-1.009-0.067-2.022-0.128-3.036-0.174-0.63-0.026-1.27-0.031-1.899-0.051v82.258c0.522-0.374 1.065-0.707 1.587-1.086 1.229-0.901 2.437-1.858 3.64-2.806 1.925-1.505 3.825-3.046 5.683-4.654 1.193-1.029 2.37-2.084 3.533-3.154 1.822-1.68 3.604-3.41 5.356-5.181 1.091-1.091 2.176-2.181 3.236-3.313zM325.591 270.659c0.231-0.917 0.481-1.828 0.697-2.75 0.553-2.375 1.065-4.767 1.531-7.168 0.067-0.327 0.144-0.65 0.205-0.978 0.517-2.734 0.962-5.478 1.357-8.238 0.118-0.839 0.21-1.685 0.317-2.524 0.251-1.935 0.486-3.876 0.681-5.832 0.103-1.029 0.179-2.069 0.266-3.102 0.144-1.792 0.276-3.584 0.368-5.386 0.062-1.075 0.108-2.155 0.149-3.236 0.031-0.768 0.031-1.546 0.051-2.314h-70.093v46.489c0.748 0.020 1.485 0.092 2.233 0.123 1.101 0.051 2.192 0.108 3.287 0.179 1.767 0.112 3.522 0.266 5.279 0.44 1.034 0.103 2.068 0.2 3.098 0.317 1.94 0.231 3.865 0.512 5.791 0.814 0.814 0.128 1.639 0.231 2.452 0.374 2.729 0.471 5.447 1.004 8.146 1.618 0.313 0.071 0.615 0.159 0.926 0.236 2.386 0.558 4.757 1.173 7.117 1.838 0.865 0.246 1.721 0.528 2.58 0.788 1.802 0.543 3.594 1.111 5.376 1.721 0.962 0.333 1.925 0.686 2.882 1.034 1.685 0.614 3.358 1.26 5.028 1.93 0.962 0.389 1.915 0.778 2.873 1.188 0.594 0.256 1.193 0.482 1.792 0.743 0.22-0.615 0.461-1.219 0.676-1.833 0.363-1.034 0.722-2.079 1.065-3.118 0.538-1.634 1.060-3.277 1.557-4.925 0.313-1.034 0.625-2.064 0.921-3.103 0.486-1.776 0.947-3.548 1.392-5.325zM330.988 212.864c-0.103-1.838-0.24-3.671-0.394-5.494-0.098-1.122-0.179-2.243-0.297-3.353-0.205-1.997-0.455-3.978-0.722-5.965-0.123-0.916-0.226-1.828-0.358-2.745-0.425-2.877-0.911-5.74-1.469-8.586-0.051-0.266-0.118-0.533-0.174-0.798-0.517-2.58-1.086-5.14-1.71-7.69-0.231-0.942-0.497-1.863-0.743-2.8-0.491-1.869-0.988-3.733-1.536-5.581-0.317-1.080-0.661-2.151-0.998-3.221-0.533-1.7-1.091-3.394-1.674-5.079-0.384-1.106-0.778-2.212-1.188-3.308-0.256-0.691-0.533-1.377-0.793-2.063-0.589 0.256-1.183 0.476-1.776 0.722-0.947 0.394-1.894 0.778-2.846 1.157-1.628 0.645-3.272 1.264-4.915 1.853-0.962 0.338-1.915 0.686-2.877 1.009-1.741 0.584-3.492 1.127-5.243 1.649-0.86 0.261-1.721 0.533-2.586 0.773-2.34 0.656-4.69 1.25-7.060 1.797-0.281 0.067-0.553 0.144-0.834 0.205-2.647 0.594-5.305 1.111-7.982 1.562-0.829 0.144-1.669 0.251-2.498 0.374-1.863 0.286-3.733 0.553-5.606 0.773-1.019 0.118-2.038 0.215-3.062 0.313-1.721 0.169-3.446 0.317-5.181 0.43-1.065 0.067-2.13 0.123-3.2 0.174-0.717 0.031-1.423 0.098-2.14 0.113v49.797h70.088c-0.026-0.834-0.031-1.674-0.062-2.503-0.041-1.178-0.098-2.345-0.159-3.512zM341.504 229.12c-0.021 0.809-0.082 1.607-0.108 2.417-0.046 1.28-0.103 2.56-0.169 3.84-0.098 1.751-0.22 3.502-0.363 5.243-0.103 1.234-0.19 2.468-0.317 3.702-0.185 1.858-0.409 3.707-0.645 5.55-0.138 1.095-0.261 2.196-0.414 3.292-0.348 2.427-0.758 4.844-1.193 7.25-0.092 0.497-0.154 0.994-0.251 1.485-0.543 2.873-1.162 5.73-1.828 8.571-0.226 0.937-0.481 1.863-0.717 2.796-0.486 1.935-0.983 3.865-1.531 5.786-0.307 1.075-0.64 2.145-0.962 3.216-0.533 1.776-1.086 3.543-1.674 5.304-0.358 1.081-0.743 2.161-1.122 3.241-0.313 0.875-0.589 1.762-0.911 2.632 2.007 1.045 3.927 2.227 5.878 3.353 1.152 0.661 2.325 1.28 3.461 1.976 3.804 2.325 7.526 4.782 11.115 7.424 0.404 0.297 0.778 0.635 1.178 0.932 3.17 2.375 6.262 4.874 9.257 7.49 1.111 0.967 2.176 2.007 3.262 3.005 1.449 1.341 2.949 2.627 4.362 4.024 22.564-25.805 35.42-58.301 36.587-92.528h-62.894zM360.699 329.221c-1.413-1.408-2.832-2.826-4.296-4.173-0.932-0.855-1.828-1.751-2.78-2.581-3.134-2.744-6.344-5.376-9.682-7.838-0.327-0.24-0.686-0.451-1.014-0.691-3.026-2.197-6.139-4.27-9.324-6.226-1.162-0.717-2.365-1.372-3.543-2.053-1.531-0.88-3.092-1.695-4.654-2.524-0.768 1.782-1.628 3.507-2.452 5.253-0.533 1.137-1.039 2.288-1.598 3.415-1.894 3.83-3.886 7.582-6.016 11.243-0.327 0.563-0.697 1.095-1.029 1.654-1.849 3.098-3.779 6.128-5.796 9.093-0.773 1.142-1.582 2.242-2.381 3.364-1.71 2.396-3.466 4.736-5.279 7.030-0.86 1.085-1.715 2.176-2.601 3.241-2.135 2.57-4.347 5.063-6.61 7.49-0.563 0.61-1.106 1.255-1.685 1.853-2.841 2.959-5.786 5.786-8.806 8.51-0.839 0.752-1.715 1.454-2.565 2.192-1.531 1.321-3.036 2.678-4.603 3.932 32.819-3.917 62.991-18.534 86.712-42.183zM232.673 367.467c-0.85-0.732-1.71-1.428-2.55-2.181-3.026-2.719-5.975-5.545-8.816-8.51-0.482-0.502-0.932-1.044-1.408-1.551-2.35-2.509-4.633-5.095-6.851-7.757-0.855-1.029-1.679-2.084-2.514-3.133-1.838-2.32-3.62-4.685-5.351-7.107-0.778-1.085-1.556-2.161-2.314-3.267-2.038-2.985-3.994-6.047-5.868-9.175-0.307-0.517-0.645-1.008-0.947-1.526-2.14-3.661-4.147-7.424-6.047-11.254-0.528-1.060-0.999-2.14-1.506-3.21-0.845-1.776-1.72-3.533-2.509-5.34-1.52 0.814-3.052 1.618-4.542 2.483-1.167 0.676-2.345 1.331-3.492 2.038-3.154 1.951-6.231 4.014-9.226 6.195-0.317 0.226-0.65 0.425-0.963 0.66-3.287 2.437-6.457 5.038-9.543 7.747-0.937 0.825-1.828 1.705-2.75 2.555-1.429 1.321-2.811 2.703-4.194 4.086 23.486 23.414 53.346 37.986 85.832 42.061-1.506-1.224-2.964-2.54-4.444-3.815zM144.195 321.649c1.372-1.362 2.826-2.606 4.239-3.917 1.081-0.998 2.135-2.027 3.241-2.995 2.949-2.58 5.986-5.043 9.108-7.393 0.399-0.302 0.768-0.635 1.167-0.932 3.543-2.611 7.209-5.048 10.962-7.358 1.126-0.696 2.299-1.316 3.446-1.982 1.91-1.111 3.784-2.274 5.744-3.308-0.317-0.86-0.599-1.736-0.906-2.601-0.394-1.111-0.788-2.222-1.162-3.338-0.589-1.756-1.142-3.523-1.685-5.294-0.327-1.075-0.666-2.151-0.973-3.231-0.558-1.961-1.070-3.938-1.572-5.913-0.226-0.896-0.476-1.787-0.691-2.683-0.681-2.878-1.31-5.77-1.863-8.684-0.061-0.317-0.107-0.64-0.164-0.958-0.482-2.601-0.917-5.217-1.296-7.838-0.143-0.994-0.251-1.997-0.379-2.99-0.256-1.966-0.496-3.932-0.691-5.904-0.113-1.157-0.205-2.314-0.297-3.471-0.149-1.843-0.286-3.691-0.384-5.545-0.066-1.208-0.118-2.417-0.164-3.625-0.030-0.855-0.097-1.705-0.113-2.56h-62.157c1.168 34.217 14.019 66.714 36.587 92.519zM169.769 218.88c0.020-0.932 0.092-1.849 0.128-2.78 0.046-1.285 0.102-2.57 0.174-3.85 0.107-1.915 0.251-3.82 0.415-5.719 0.107-1.229 0.2-2.457 0.322-3.687 0.21-2.043 0.471-4.080 0.743-6.113 0.143-1.045 0.256-2.099 0.415-3.144 0.425-2.821 0.906-5.622 1.444-8.412 0.046-0.246 0.082-0.491 0.128-0.738 0.599-3.026 1.28-6.031 2.018-9.017 0.236-0.962 0.517-1.915 0.768-2.873 0.532-2.027 1.075-4.050 1.674-6.057 0.338-1.132 0.707-2.253 1.065-3.379 0.578-1.817 1.173-3.64 1.808-5.442 0.41-1.173 0.839-2.329 1.27-3.492 0.333-0.906 0.64-1.813 0.988-2.714-1.874-0.967-3.676-2.068-5.509-3.108-1.137-0.65-2.288-1.255-3.41-1.925-3.702-2.233-7.321-4.587-10.829-7.111-0.251-0.185-0.487-0.389-0.738-0.574-3.241-2.365-6.385-4.864-9.446-7.481-1.049-0.896-2.048-1.849-3.077-2.77-1.449-1.305-2.944-2.555-4.352-3.917-23.562 26.082-36.966 59.213-38.16 94.3h62.162zM152.986 117.13c1.326 1.28 2.652 2.575 4.019 3.804 0.927 0.829 1.828 1.69 2.775 2.498 3.056 2.611 6.185 5.125 9.426 7.47 0.226 0.164 0.471 0.307 0.696 0.466 3.036 2.171 6.16 4.204 9.344 6.139 1.126 0.681 2.288 1.31 3.43 1.961 1.475 0.839 2.98 1.608 4.48 2.401 0.793-1.746 1.669-3.44 2.514-5.156 0.496-1.009 0.963-2.033 1.48-3.036 1.894-3.692 3.886-7.312 6.006-10.834 0.317-0.533 0.676-1.039 0.999-1.572 1.838-2.98 3.748-5.898 5.744-8.755 0.738-1.050 1.495-2.079 2.248-3.113 1.726-2.365 3.507-4.68 5.335-6.942 0.788-0.973 1.566-1.956 2.37-2.908 2.345-2.78 4.756-5.478 7.255-8.089 0.281-0.292 0.537-0.599 0.819-0.891 2.786-2.873 5.678-5.606 8.643-8.243 0.845-0.752 1.715-1.464 2.576-2.202 1.326-1.137 2.621-2.314 3.978-3.399-31.652 3.983-60.912 17.971-84.137 40.402zM278.175 80.169c0.829 0.712 1.674 1.392 2.493 2.125 2.974 2.658 5.878 5.406 8.678 8.289 0.353 0.363 0.686 0.758 1.034 1.127 2.432 2.55 4.787 5.187 7.070 7.895 0.819 0.967 1.608 1.971 2.411 2.959 1.822 2.258 3.594 4.572 5.315 6.933 0.768 1.050 1.541 2.094 2.284 3.164 1.981 2.846 3.881 5.75 5.704 8.719 0.343 0.558 0.717 1.096 1.055 1.654 2.11 3.522 4.101 7.147 5.986 10.829 0.538 1.055 1.034 2.14 1.562 3.21 0.825 1.695 1.69 3.364 2.468 5.084 1.567-0.809 3.139-1.613 4.675-2.478 1.132-0.64 2.279-1.25 3.389-1.92 3.358-2.017 6.646-4.137 9.83-6.41 0.123-0.092 0.256-0.164 0.374-0.251 3.308-2.381 6.498-4.93 9.61-7.582 0.947-0.804 1.853-1.669 2.78-2.503 1.398-1.255 2.755-2.57 4.111-3.886-23.46-22.656-53.028-36.695-85.017-40.525 1.428 1.142 2.8 2.375 4.188 3.568z" />
<glyph unicode="&#xe020;" d="M415.16 336.432c-2.968 4.192-6.064 8.28-9.36 12.216-35.8 42.952-89.656 70.344-149.8 70.344-0.112 0-0.2-0.008-0.296-0.008-0.064 0-0.112 0.008-0.168 0.008-0.216 0-0.44-0.024-0.672-0.024-59.688-0.344-113.080-27.656-148.656-70.32-3.28-3.944-6.392-8.024-9.36-12.216-22.536-31.8-35.832-70.576-35.832-112.432s13.296-80.64 35.832-112.432c2.968-4.192 6.080-8.28 9.36-12.216 35.576-42.664 88.968-69.976 148.656-70.32 0.232 0 0.456-0.024 0.672-0.024 0.064 0 0.112 0.008 0.168 0.008 0.096 0 0.184-0.008 0.296-0.008 60.144 0 114 27.384 149.8 70.336 3.28 3.936 6.392 8.032 9.36 12.224 22.528 31.8 35.832 70.584 35.832 112.44-0.008 41.84-13.304 80.624-35.832 112.424zM199 393.632c-17.92-17.288-32.816-42.56-43.080-72.888-13.752 5.136-26.128 11.32-36.8 18.312 20.928 24.848 48.44 43.984 79.88 54.576zM109.736 326.824c12.128-8.096 26.144-15.176 41.64-21.008-6.688-24.432-10.528-51.552-10.672-80.168h-63.656c0.344 37.64 12.456 72.472 32.688 101.176zM77.64 209.648h63.376c1.032-23.952 4.672-46.68 10.344-67.472-15.504-5.832-29.512-12.912-41.624-21.008-17.936 25.44-29.488 55.696-32.096 88.48zM119.168 108.976c10.672 6.976 23.016 13.144 36.736 18.28 10.264-30.336 25.168-55.592 43.096-72.88-31.44 10.584-58.904 29.752-79.832 54.6zM248 45.584c-32.832 4.504-61.168 38.176-77.232 86.664 23.16 6.952 49.376 11.152 77.232 11.832v-98.496zM248 160.064c-29.376-0.704-57.064-5.248-81.72-12.808-5.048 19.176-8.28 40.208-9.248 62.384h90.968v-49.576zM248 225.648h-91.296c0.144 26.872 3.64 52.256 9.656 75.072 24.624-7.544 52.296-12.088 81.64-12.784v-62.288zM248 303.92c-27.84 0.68-54.048 4.872-77.184 11.816 16.056 48.472 44.368 82.176 77.184 86.68v-98.496zM434.936 225.648h-64.576c-0.144 28.496-3.936 55.504-10.576 79.848 15.84 5.888 30.144 13.080 42.472 21.32 20.232-28.704 32.336-63.528 32.68-101.168zM392.856 339.040c-10.888-7.128-23.544-13.408-37.624-18.6-10.36 30.744-25.472 56.32-43.672 73.672 32.032-10.488 60.048-29.84 81.296-55.072zM264 402.296c32.472-5.016 60.44-38.656 76.328-86.8-22.92-6.792-48.832-10.904-76.328-11.576v98.376zM264 287.928c29 0.688 56.36 5.136 80.768 12.52 5.984-22.752 9.456-48.040 9.592-74.808h-90.36v62.288zM264 209.648h90.032c-0.968-22.080-4.184-43.016-9.184-62.12-24.44 7.4-51.832 11.848-80.84 12.544v49.576zM264 45.704v98.368c27.512-0.672 53.424-4.784 76.376-11.584-15.904-48.152-43.904-81.768-76.376-86.784zM311.56 53.88c18.2 17.352 33.344 42.904 43.704 73.664 14.048-5.192 26.688-11.456 37.56-18.576-21.248-25.224-49.232-44.592-81.264-55.088zM402.264 121.16c-12.328 8.248-26.64 15.448-42.488 21.336 5.624 20.696 9.232 43.32 10.248 67.144h64.328c-2.6-32.776-14.136-63.040-32.088-88.48z" />
<glyph unicode="&#xe021;" d="M409.965 249.59c0 0-171.213 6.129-103.646-77.605l30.077 30.077 16.887 4.568-64.446-64.446 12.32-12.32 23.109 23.109c92.215-85.43 85.701 96.617 85.701 96.617zM496.409 187.808c0 0.003 0 0.007 0 0.010 0.010 0.512 0.007 1.022-0.007 1.536 0.003 0.474-0.003 0.947-0.020 1.421 0 0.005-0 0.010-0 0.015-0.017 0.468-0.045 0.936-0.081 1.405-0.002 0.013-0.002 0.025-0.003 0.038-0.037 0.46-0.084 0.921-0.141 1.382-0.003 0.022-0.005 0.045-0.009 0.067-0.056 0.452-0.123 0.904-0.197 1.356-0.005 0.034-0.012 0.069-0.018 0.103-0.074 0.44-0.158 0.881-0.25 1.322-0.010 0.048-0.021 0.098-0.031 0.145-0.091 0.429-0.192 0.857-0.3 1.286-0.015 0.063-0.034 0.127-0.049 0.19-0.108 0.414-0.221 0.83-0.344 1.245-0.024 0.079-0.049 0.161-0.073 0.24-0.122 0.401-0.248 0.8-0.382 1.2-0.034 0.098-0.070 0.197-0.104 0.295-0.133 0.384-0.269 0.767-0.416 1.151-0.046 0.12-0.096 0.239-0.142 0.358-0.142 0.365-0.288 0.729-0.442 1.095-0.060 0.143-0.127 0.286-0.189 0.43-0.149 0.343-0.298 0.686-0.459 1.029-0.079 0.172-0.166 0.344-0.249 0.517-0.152 0.317-0.303 0.633-0.463 0.95-0.104 0.207-0.219 0.414-0.327 0.622-0.149 0.284-0.296 0.57-0.452 0.854-0.139 0.254-0.288 0.509-0.433 0.763-0.137 0.24-0.269 0.48-0.411 0.721-0.207 0.353-0.428 0.706-0.645 1.060-0.089 0.144-0.173 0.288-0.264 0.432-0.317 0.503-0.646 1.009-0.986 1.514-0.608 0.903-1.199 1.813-1.773 2.728-5.536 9.928-9.101 20.297-9.548 32.471-0.768 19.582-9.6 35.007-30.144 41.344-0.451 0.137-0.885 0.297-1.326 0.445-0.974 0.523-1.942 1.053-2.903 1.591-0.548 0.308-1.090 0.625-1.635 0.938-0.434 0.25-0.871 0.497-1.302 0.751-0.613 0.361-1.221 0.731-1.827 1.1-0.346 0.21-0.695 0.418-1.039 0.631-0.655 0.405-1.304 0.817-1.952 1.232-0.281 0.179-0.563 0.358-0.842 0.541-0.688 0.447-1.372 0.901-2.051 1.362-0.224 0.151-0.448 0.303-0.671 0.456-0.718 0.491-1.432 0.99-2.139 1.495-0.167 0.12-0.334 0.24-0.5 0.361-0.751 0.541-1.496 1.089-2.235 1.647-0.099 0.075-0.197 0.152-0.297 0.228-0.793 0.603-1.582 1.214-2.36 1.837-3.243 3.154-6.304 6.538-9.305 9.963-3.193 3.679-6.555 6.628-10.147 8.847-0.003 0.002-0.005 0.003-0.009 0.006-0.293 0.233-0.596 0.449-0.897 0.667-0.187 0.136-0.371 0.274-0.56 0.403-0.293 0.202-0.589 0.394-0.888 0.583-0.205 0.13-0.411 0.257-0.62 0.381-0.297 0.177-0.596 0.35-0.898 0.515-0.219 0.119-0.442 0.231-0.664 0.343-0.302 0.153-0.603 0.308-0.909 0.45-0.241 0.11-0.487 0.208-0.731 0.31-0.52 0.22-1.047 0.423-1.581 0.607-0.283 0.099-0.565 0.201-0.853 0.29-0.283 0.088-0.571 0.163-0.858 0.241-0.296 0.080-0.592 0.159-0.892 0.229-0.281 0.066-0.567 0.127-0.852 0.185-0.322 0.065-0.645 0.121-0.97 0.175-0.271 0.045-0.542 0.089-0.815 0.127-0.389 0.052-0.782 0.089-1.176 0.126-0.217 0.019-0.43 0.047-0.649 0.062-0.601 0.041-1.209 0.062-1.822 0.066-0.202 0.001-0.409-0.009-0.613-0.012-0.439-0.005-0.88-0.016-1.325-0.042-0.244-0.013-0.489-0.034-0.735-0.054-0.419-0.032-0.84-0.073-1.263-0.122-0.248-0.029-0.495-0.059-0.745-0.093-0.453-0.063-0.909-0.138-1.368-0.219-0.216-0.038-0.431-0.072-0.649-0.115-0.675-0.133-1.353-0.28-2.038-0.453-1.087-0.276-2.178-0.537-3.269-0.781-0.214-0.048-0.428-0.088-0.642-0.135-0.888-0.193-1.776-0.382-2.668-0.554-0.199-0.038-0.397-0.071-0.595-0.108-0.916-0.172-1.833-0.338-2.752-0.487-0.149-0.024-0.298-0.044-0.447-0.067-0.976-0.154-1.952-0.299-2.93-0.428-0.091-0.012-0.184-0.022-0.276-0.034-1.039-0.133-2.079-0.255-3.12-0.36-0.041-0.005-0.081-0.007-0.122-0.011-1.093-0.108-2.187-0.202-3.281-0.278-0.002 0-0.003 0-0.005 0-2.245-0.155-4.493-0.243-6.74-0.26-8.989 0.069-18.004 1.251-26.844 3.502-9.765 2.469-18.495 0.793-25.381-4.657-0.005-0.002-0.009-0.006-0.013-0.008-0.334-0.206-0.663-0.424-0.992-0.643-0.139-0.092-0.279-0.181-0.418-0.276-0.3-0.206-0.598-0.421-0.896-0.637-0.166-0.121-0.334-0.242-0.5-0.366-0.276-0.207-0.55-0.421-0.824-0.638-0.189-0.149-0.377-0.301-0.565-0.454-0.252-0.208-0.504-0.418-0.755-0.635-0.211-0.181-0.42-0.366-0.628-0.553-0.228-0.204-0.456-0.408-0.681-0.618-0.239-0.222-0.475-0.451-0.712-0.68-0.195-0.19-0.392-0.377-0.587-0.572-0.288-0.288-0.572-0.586-0.857-0.885-0.144-0.152-0.288-0.298-0.433-0.453-0.432-0.464-0.862-0.94-1.288-1.431-0.699-0.798-1.404-1.594-2.111-2.385-0.111-0.125-0.223-0.248-0.334-0.372-0.671-0.747-1.347-1.491-2.028-2.228-0.044-0.048-0.087-0.096-0.132-0.142-1.533-1.652-3.095-3.273-4.701-4.835-6.764-5.411-14.050-10.038-21.752-14.167-0.047-0.016-0.096-0.032-0.143-0.048-0.393-0.135-0.782-0.276-1.184-0.398-20.544-6.336-29.376-21.762-30.144-41.344 0-0.003 0-0.005 0-0.008-0.030-0.819-0.077-1.627-0.135-2.43-0.019-0.265-0.046-0.526-0.069-0.79-0.046-0.538-0.093-1.075-0.15-1.607-0.032-0.306-0.072-0.608-0.109-0.913-0.059-0.484-0.121-0.967-0.19-1.446-0.046-0.315-0.095-0.628-0.144-0.94-0.074-0.465-0.153-0.928-0.237-1.387-0.057-0.311-0.114-0.621-0.174-0.929-0.091-0.464-0.189-0.924-0.29-1.383-0.065-0.294-0.126-0.589-0.195-0.882-0.115-0.494-0.239-0.984-0.366-1.474-0.064-0.249-0.124-0.499-0.191-0.746-0.195-0.722-0.4-1.44-0.619-2.153-0.047-0.153-0.099-0.303-0.147-0.455-0.178-0.566-0.36-1.131-0.551-1.691-0.096-0.281-0.2-0.562-0.3-0.842-0.152-0.427-0.305-0.853-0.465-1.277-0.117-0.309-0.238-0.615-0.358-0.922-0.155-0.393-0.311-0.786-0.473-1.176-0.13-0.315-0.262-0.628-0.397-0.941-0.163-0.382-0.331-0.762-0.5-1.14-0.14-0.312-0.28-0.625-0.424-0.935-0.178-0.382-0.36-0.764-0.543-1.144-0.145-0.301-0.288-0.603-0.438-0.904-0.203-0.409-0.413-0.817-0.623-1.224-0.137-0.267-0.271-0.534-0.411-0.8-0.341-0.647-0.691-1.292-1.049-1.935-0.575-0.914-1.165-1.822-1.772-2.724-5.319-7.918-7.939-15.594-7.879-23.205 0-0.002 0-0.002 0-0.003-0.013-0.507-0.016-1.015-0.006-1.522 0-0.005 0-0.008 0-0.012-0.007-0.394-0.008-0.787-0.001-1.182 0-0.002 0-0.005 0-0.007-0.005-0.474 0-0.947 0.017-1.421 0-0.003 0-0.005 0-0.009 0.016-0.474 0.042-0.947 0.079-1.421 0-0.005 0-0.012 0.001-0.017 0.037-0.47 0.084-0.94 0.141-1.411 0.001-0.012 0.003-0.023 0.005-0.035 0.058-0.464 0.124-0.93 0.201-1.396 0.003-0.018 0.006-0.036 0.009-0.053 0.077-0.459 0.163-0.918 0.259-1.377 0.006-0.029 0.013-0.057 0.018-0.086 0.095-0.45 0.198-0.901 0.312-1.349 0.010-0.039 0.020-0.077 0.030-0.116 0.113-0.439 0.232-0.879 0.363-1.319 0.017-0.055 0.034-0.11 0.050-0.164 0.128-0.426 0.262-0.852 0.407-1.279 0.024-0.072 0.050-0.143 0.075-0.214 0.142-0.411 0.288-0.822 0.445-1.235 0.035-0.091 0.072-0.182 0.107-0.272 0.153-0.394 0.31-0.788 0.476-1.183 0.048-0.113 0.101-0.227 0.149-0.341 0.162-0.373 0.326-0.748 0.499-1.122 0.065-0.14 0.137-0.281 0.203-0.423 0.167-0.349 0.333-0.699 0.511-1.050 0.088-0.172 0.182-0.346 0.272-0.519 0.167-0.32 0.332-0.64 0.507-0.963 0.115-0.211 0.239-0.423 0.358-0.635 0.161-0.286 0.32-0.573 0.488-0.861 0.155-0.264 0.321-0.53 0.482-0.795 0.144-0.236 0.282-0.472 0.431-0.709 0.275-0.438 0.561-0.877 0.852-1.317 0.044-0.066 0.084-0.132 0.128-0.197 0.004-0.005 0.007-0.010 0.011-0.015 0.439-0.654 0.868-1.31 1.29-1.971 0.004-0.007 0.008-0.012 0.012-0.018 5.767-10.149 9.502-20.726 9.96-33.193 0.768-19.584 9.6-35.008 30.145-41.344 0.549-0.166 1.082-0.358 1.617-0.545 0.046-0.025 0.092-0.051 0.139-0.076 1.394-0.751 2.771-1.522 4.137-2.308 0.456-0.262 0.913-0.521 1.366-0.786 0.49-0.288 0.976-0.584 1.464-0.877 0.483-0.291 0.966-0.582 1.447-0.879 0.466-0.288 0.93-0.581 1.392-0.874 0.499-0.315 0.997-0.635 1.492-0.958 0.44-0.286 0.88-0.575 1.317-0.867 0.521-0.348 1.039-0.701 1.556-1.057 0.404-0.279 0.809-0.555 1.211-0.837 0.578-0.408 1.151-0.824 1.723-1.241 0.334-0.243 0.668-0.482 1-0.728 0.885-0.659 1.762-1.327 2.63-2.012 3.462-3.313 6.712-6.899 9.894-10.53 3.324-3.828 6.829-6.861 10.587-9.108 0.204-0.156 0.414-0.298 0.622-0.448 0.232-0.168 0.461-0.342 0.697-0.502 0.269-0.183 0.546-0.35 0.82-0.521 0.229-0.144 0.459-0.288 0.692-0.425 0.276-0.161 0.555-0.313 0.837-0.464 0.243-0.131 0.488-0.257 0.733-0.379 0.279-0.138 0.558-0.275 0.842-0.402 0.266-0.12 0.537-0.231 0.807-0.342s0.539-0.228 0.815-0.332c0.509-0.19 1.022-0.365 1.545-0.522 0.245-0.074 0.495-0.135 0.743-0.202 0.329-0.089 0.659-0.178 0.992-0.255 0.268-0.062 0.539-0.115 0.81-0.168 0.327-0.065 0.656-0.125 0.987-0.178 0.268-0.043 0.538-0.084 0.808-0.12 0.362-0.047 0.727-0.083 1.094-0.116 0.243-0.022 0.485-0.049 0.729-0.065 0.594-0.039 1.194-0.063 1.8-0.065 0.157-0 0.317 0.009 0.475 0.010 0.478 0.005 0.959 0.018 1.443 0.046 0.243 0.014 0.488 0.036 0.731 0.055 0.413 0.034 0.827 0.072 1.246 0.121 0.254 0.030 0.509 0.063 0.765 0.098 0.435 0.060 0.873 0.133 1.313 0.211 0.231 0.042 0.462 0.078 0.695 0.125 0.627 0.123 1.257 0.262 1.893 0.421 0.040 0.010 0.079 0.015 0.119 0.026 0.258 0.066 0.519 0.123 0.776 0.187 0.819 0.202 1.639 0.404 2.461 0.588 0.32 0.072 0.643 0.134 0.964 0.202 0.779 0.168 1.558 0.336 2.339 0.487 0.263 0.050 0.527 0.094 0.79 0.143 0.851 0.159 1.702 0.313 2.555 0.452 0.187 0.031 0.375 0.056 0.562 0.086 0.937 0.147 1.874 0.288 2.812 0.411 0.116 0.015 0.231 0.027 0.346 0.043 1.015 0.131 2.029 0.25 3.046 0.352 0.054 0.005 0.109 0.010 0.163 0.015 1.077 0.106 2.154 0.199 3.232 0.274 0.013 0 0.025 0.002 0.038 0.003 2.232 0.155 4.465 0.242 6.697 0.26 0.003 0 0.007 0 0.010 0 8.969-0.074 17.964-1.255 26.784-3.502 9.604-2.427 18.206-0.849 25.038 4.387 0.933 0.557 1.849 1.163 2.752 1.817 0.023 0.017 0.046 0.034 0.070 0.051 0.424 0.308 0.845 0.627 1.261 0.957 0.053 0.043 0.105 0.086 0.159 0.128 0.389 0.311 0.776 0.628 1.159 0.958 0.091 0.078 0.182 0.161 0.273 0.24 0.346 0.303 0.692 0.608 1.034 0.928 0.142 0.131 0.281 0.269 0.423 0.402 0.293 0.28 0.588 0.558 0.879 0.85 0.217 0.217 0.43 0.445 0.646 0.667 0.217 0.224 0.435 0.445 0.651 0.677 0.435 0.467 0.868 0.947 1.296 1.44 0.726 0.829 1.458 1.654 2.193 2.476 0.132 0.147 0.264 0.293 0.396 0.441 2.353 2.615 4.759 5.174 7.279 7.587 0.012 0.012 0.022 0.022 0.034 0.033 6.508 5.125 13.498 9.536 20.865 13.495 0.536 0.185 1.068 0.377 1.617 0.544 20.545 6.336 29.377 21.76 30.144 41.344 0.031 0.829 0.077 1.646 0.136 2.459 0.020 0.277 0.049 0.55 0.072 0.825 0.045 0.53 0.091 1.059 0.148 1.582 0.036 0.33 0.079 0.657 0.12 0.985 0.057 0.459 0.115 0.919 0.182 1.374 0.051 0.353 0.108 0.702 0.164 1.053 0.068 0.421 0.139 0.841 0.215 1.257 0.067 0.367 0.137 0.731 0.209 1.095 0.077 0.391 0.16 0.78 0.245 1.167 0.082 0.377 0.166 0.755 0.255 1.13 0.086 0.361 0.176 0.718 0.267 1.076 0.101 0.393 0.2 0.786 0.307 1.177 0.087 0.318 0.182 0.635 0.274 0.951 0.123 0.421 0.243 0.844 0.372 1.261 0.070 0.223 0.145 0.442 0.217 0.663 0.577 1.79 1.223 3.55 1.937 5.286 0.027 0.065 0.052 0.131 0.078 0.195 0.229 0.554 0.469 1.104 0.712 1.652 0.057 0.13 0.111 0.258 0.169 0.387 0.241 0.537 0.489 1.072 0.743 1.604 0.063 0.133 0.125 0.266 0.189 0.398 0.26 0.539 0.526 1.078 0.798 1.614 0.058 0.114 0.115 0.228 0.173 0.341 0.286 0.558 0.578 1.115 0.877 1.671 0.038 0.072 0.077 0.143 0.116 0.215 0.322 0.594 0.649 1.188 0.986 1.779 0.43 0.671 0.865 1.339 1.31 2.002 5.339 8.009 7.96 15.659 7.878 23.294 0 0.002 0 0.003 0 0.005 0.010 0.386 0.009 0.775 0.002 1.165zM465.622 184.982c-0.009-0.263-0.021-0.526-0.031-0.789-0.024-0.599-0.052-1.198-0.086-1.795-0.015-0.288-0.034-0.577-0.052-0.864-0.041-0.613-0.087-1.226-0.137-1.838-0.020-0.24-0.038-0.48-0.059-0.719-0.075-0.839-0.159-1.675-0.255-2.509-0.015-0.137-0.034-0.272-0.050-0.409-0.083-0.702-0.173-1.403-0.269-2.102-0.039-0.277-0.079-0.553-0.121-0.83-0.083-0.572-0.171-1.142-0.264-1.712-0.047-0.288-0.094-0.575-0.144-0.863-0.104-0.613-0.217-1.224-0.333-1.836-0.042-0.219-0.080-0.438-0.123-0.657-0.159-0.812-0.327-1.619-0.505-2.425-0.048-0.219-0.101-0.438-0.15-0.657-0.136-0.598-0.275-1.195-0.421-1.789-0.073-0.298-0.149-0.596-0.224-0.894-0.134-0.529-0.273-1.058-0.414-1.585-0.079-0.295-0.159-0.591-0.241-0.885-0.168-0.605-0.344-1.207-0.522-1.808-0.059-0.2-0.115-0.401-0.176-0.601-0.235-0.773-0.478-1.543-0.729-2.31-0.091-0.277-0.187-0.553-0.28-0.83-0.172-0.512-0.347-1.024-0.526-1.533-0.113-0.32-0.228-0.639-0.344-0.959-0.173-0.478-0.351-0.954-0.531-1.428-0.118-0.312-0.236-0.625-0.356-0.937-0.224-0.575-0.453-1.147-0.686-1.716-0.135-0.332-0.271-0.661-0.408-0.991-0.247-0.587-0.495-1.173-0.752-1.757-0.144-0.33-0.293-0.658-0.442-0.986-0.192-0.425-0.384-0.848-0.579-1.269-0.163-0.349-0.327-0.697-0.492-1.046-0.195-0.409-0.394-0.815-0.594-1.223-0.166-0.34-0.333-0.68-0.503-1.019-0.258-0.512-0.524-1.022-0.789-1.531-0.257-0.492-0.52-0.983-0.785-1.471-0.211-0.389-0.421-0.779-0.637-1.165-0.206-0.371-0.418-0.741-0.628-1.111-0.193-0.341-0.389-0.679-0.586-1.017-0.222-0.379-0.445-0.757-0.67-1.134-0.192-0.322-0.389-0.64-0.584-0.96-0.235-0.384-0.467-0.767-0.706-1.147-0.142-0.224-0.288-0.447-0.43-0.671-0.505-0.791-1.019-1.577-1.543-2.356-0.18-0.269-0.361-0.538-0.544-0.805-0.276-0.404-0.556-0.805-0.837-1.206-0.18-0.256-0.361-0.512-0.543-0.765-0.293-0.409-0.585-0.818-0.883-1.224-0.157-0.214-0.315-0.425-0.474-0.637-1.075-1.443-2.18-2.862-3.32-4.256-0.147-0.179-0.293-0.36-0.441-0.538-0.352-0.426-0.709-0.849-1.067-1.27-0.148-0.174-0.297-0.347-0.446-0.52-0.377-0.438-0.755-0.874-1.138-1.307-0.056-0.063-0.114-0.126-0.17-0.189-1.326-1.49-2.69-2.945-4.089-4.366-0.111-0.113-0.223-0.227-0.336-0.341-0.432-0.435-0.867-0.867-1.305-1.295-0.098-0.096-0.197-0.19-0.295-0.286-1.971-1.911-4.007-3.754-6.105-5.524-0.074-0.063-0.149-0.126-0.224-0.188-0.512-0.43-1.027-0.856-1.546-1.276-0.029-0.023-0.057-0.046-0.086-0.069-2.206-1.784-4.476-3.488-6.806-5.107-0.041-0.029-0.080-0.056-0.122-0.084-2.942-2.039-5.979-3.942-9.101-5.698-0.010-0.007-0.021-0.012-0.031-0.017-5.655-3.177-11.589-5.873-17.741-8.021-0.012-0.005-0.022-0.008-0.033-0.012-11.421-3.762-23.546-5.814-35.988-5.865-0.162-0.005-0.323-0.003-0.485-0.005-0.162 0.003-0.323 0.002-0.485 0.005-0.027 0-0.055 0.002-0.082 0.002-1.292 0.007-2.58 0.038-3.866 0.087-0.168 0.007-0.339 0.010-0.507 0.017-1.209 0.051-2.415 0.127-3.618 0.215-0.274 0.021-0.55 0.040-0.824 0.062-1.116 0.089-2.229 0.199-3.338 0.32-0.37 0.041-0.74 0.082-1.108 0.127-1.024 0.123-2.048 0.259-3.067 0.408-0.464 0.068-0.928 0.141-1.391 0.215-0.86 0.137-1.717 0.281-2.573 0.438-0.635 0.116-1.265 0.239-1.897 0.365-0.529 0.105-1.056 0.216-1.584 0.329-0.971 0.209-1.94 0.428-2.904 0.659-0.346 0.083-0.692 0.168-1.036 0.255-1.169 0.293-2.331 0.603-3.486 0.93-0.199 0.056-0.398 0.111-0.596 0.169-1.362 0.394-2.715 0.812-4.058 1.253-0.023 0.008-0.045 0.015-0.068 0.022-43.865 15.304-76.529 58.413-76.884 105.681-0.005 0.519 0.004 1.032 0.006 1.548 0.030 2.151 0.13 4.293 0.293 6.423 0.006 0.074 0.011 0.149 0.017 0.224 0.053 0.672 0.112 1.344 0.178 2.012 0.007 0.074 0.015 0.147 0.022 0.221 0.28 2.798 0.671 5.573 1.168 8.324 0.016 0.089 0.032 0.178 0.048 0.266 0.123 0.666 0.25 1.33 0.384 1.993 0.003 0.015 0.006 0.031 0.010 0.046 0.425 2.089 0.912 4.162 1.458 6.216 0.008 0.030 0.015 0.059 0.024 0.088 0.173 0.649 0.352 1.296 0.537 1.94 0.025 0.086 0.050 0.172 0.075 0.259 0.772 2.668 1.643 5.303 2.611 7.901 0.028 0.074 0.055 0.149 0.083 0.222 0.233 0.622 0.471 1.242 0.715 1.858 0.025 0.064 0.051 0.128 0.076 0.192 1.024 2.578 2.143 5.117 3.353 7.612 0.042 0.088 0.085 0.177 0.129 0.264 0.293 0.6 0.589 1.198 0.893 1.793 0.004 0.008 0.008 0.016 0.012 0.024 0.958 1.881 1.97 3.735 3.030 5.56 0.024 0.041 0.047 0.083 0.071 0.123 0.334 0.574 0.673 1.144 1.018 1.713 0.047 0.077 0.095 0.155 0.142 0.233 1.438 2.363 2.961 4.677 4.563 6.934 0.046 0.065 0.091 0.13 0.138 0.195 0.387 0.544 0.78 1.085 1.177 1.623 0.031 0.042 0.062 0.083 0.092 0.125 1.662 2.244 3.404 4.429 5.219 6.552 0.051 0.060 0.104 0.121 0.156 0.18 1.831 2.131 3.738 4.199 5.715 6.195 0.019 0.018 0.038 0.037 0.056 0.057 0.485 0.488 0.972 0.971 1.465 1.45 0.038 0.037 0.075 0.073 0.113 0.11 2.017 1.959 4.104 3.846 6.255 5.657 0.032 0.027 0.064 0.054 0.096 0.081 2.719 2.282 5.541 4.443 8.457 6.469 0.029 0.019 0.056 0.038 0.084 0.058 2.928 2.031 5.95 3.928 9.056 5.679 0.009 0.005 0.015 0.009 0.024 0.013 2.484 1.399 5.022 2.705 7.608 3.912 0.022 0.010 0.043 0.020 0.065 0.030 3.228 1.504 6.533 2.854 9.902 4.041 0.029 0.010 0.056 0.020 0.084 0.030 11.486 3.81 23.692 5.888 36.217 5.94 0.153 0.003 0.305 0.002 0.457 0.005 0.164-0.003 0.329-0 0.493-0.005 1.341-0.006 2.676-0.039 4.009-0.090 0.141-0.006 0.283-0.009 0.424-0.015 1.236-0.053 2.469-0.129 3.697-0.22 0.249-0.019 0.497-0.036 0.745-0.055 1.147-0.093 2.291-0.204 3.431-0.33 0.337-0.038 0.673-0.076 1.010-0.117 1.066-0.127 2.127-0.268 3.187-0.424 0.418-0.062 0.836-0.128 1.253-0.195 0.897-0.142 1.79-0.293 2.68-0.456 0.588-0.107 1.174-0.222 1.76-0.339 0.623-0.123 1.245-0.254 1.866-0.387 0.862-0.185 1.72-0.381 2.575-0.586 0.47-0.113 0.94-0.227 1.408-0.346 1.024-0.259 2.043-0.532 3.057-0.818 0.347-0.097 0.695-0.194 1.039-0.295 1.229-0.359 2.451-0.738 3.666-1.137 0.151-0.050 0.303-0.096 0.454-0.147 43.523-15.299 75.954-57.98 76.63-104.883 0.003-0.515 0.010-1.029 0.007-1.548-0.009-0.847-0.030-1.697-0.057-2.546zM199.179 91.725h17.92v-17.92h-17.778zM188.116 191.478c0.564 10.056 3.925 20.141 10.029 30.051 6.061 9.788 8.78 17.839 9.114 26.968 0.553 14.109 4.315 26.309 11.183 36.311 7.703 11.22 18.862 19.145 33.166 23.557l0.082 0.025c8.56 2.6 15.508 9.934 23.055 18.543 4.026 4.631 8.353 8.488 12.957 11.577 0.553 0.763 1.108 1.53 1.669 2.303-18.752 20.096-36.992 39.488-55.808 59.584-14.272-15.361-95.040-108.929-109.888-120.064v26.112h-52.8v-85.952c-0.512-0.704-42.24-49.92-55.296-66.56h53.44v-96.448c2.432 2.176 4.608 4.096 6.528 6.272 35.52 39.232 72 77.568 105.792 118.272 2.474 2.969 4.709 6.14 6.779 9.45zM199.348 152.093l-0.044 0.067c-2.399 3.599-4.417 7.224-6.054 10.865l-94.004-105.539h37.923l69.907 78.105c-1.6 5.701-4.194 11.248-7.727 16.503zM209.011 117.709h-10.023v-17.92h14.305c-2.447 5.521-3.905 11.538-4.282 17.92zM231.179 73.805h7.763c-2.761 1.377-5.351 2.917-7.763 4.603v-4.603z" />
<glyph unicode="&#xe022;" d="M152.617 14.361l-80.842 63.037 243.19 311.878 80.841-63.037-243.189-311.878zM89.555 79.598l60.862-47.457 227.61 291.897-60.861 47.457-227.61-291.897zM404.707 337.652l-80.841 63.037 19.31 24.764 80.841-63.038-19.31-24.763zM341.645 402.889l60.861-47.457 3.729 4.784-60.861 47.457-3.73-4.784zM432.419 373.183l-80.846 63.040 4.046 5.191c7.519 9.643 21.515 27.591 37.058 27.591 4.539 0 8.76-1.495 12.542-4.445l41.565-32.411c4.2-3.19 6.783-7.646 7.472-12.889 1.366-10.402-4.454-23.775-17.795-40.883l-4.043-5.194zM369.396 438.392l60.731-47.356c10.983 15.253 12.024 23.115 11.569 26.574-0.253 1.924-1.052 3.3-2.591 4.464l-0.075 0.058-41.599 32.438c-1.546 1.206-3.056 1.767-4.752 1.767-7.553-0-17.096-10.372-23.282-17.945zM71.517-24.871c-5.005 0-9.738 2.228-12.985 6.113-3.193 3.82-4.523 8.832-3.655 13.76l12.287 77.289 82.522-64.348-72.040-31.658c-1.982-0.767-4.044-1.155-6.13-1.155zM76.305 49.097l-8.948-56.274c-0.293-1.622 0.326-2.776 0.895-3.457 0.82-0.982 2.041-1.568 3.264-1.568 0.481 0 0.97 0.089 1.454 0.262l52.19 22.941-48.856 38.096z" />
<glyph unicode="&#xe023;" d="M523.133 0.45l-51.775 32.434v-21.933h-428.439v417.29h21.966l-32.45 51.758-32.434-51.758h21.95v-438.276h449.408v-21.966zM63.556 101.060l8.973-5.45 29.876 49.25h37.087v4.719l38.665-36.289v-34.627h47.189v47.206h-10.567l34.478 125.2h1.977l31.537-92.434h-10.236v-47.189h47.189v34.993l33.431 24.442v-2.392h34.046l28.779-51.791h-4.503v-47.189h47.189v47.189h-15.968l17.596 176.975h20.67v47.189h-47.189v-47.189h15.968l-17.579-176.975h-4.187l-28.762 51.791h1.147v47.189h-47.206v-31.769l-34.544-25.272h-24.774l-31.537 92.434h10.236v47.189h-47.189v-47.189h13.027l-34.478-125.2h-23.81l-40.593 38.1v28.098h-47.189v-43.633z" horiz-adv-x="523" />
<glyph unicode="&#xe024;" d="M523.144 0.432l-51.779 32.448v-21.977h-428.431v417.336h21.977l-32.448 51.762-32.465-51.762h21.96v-438.293h449.406v-21.945zM74.857 118.766l87.382 114.472c7.529-5.392 16.651-8.613 26.596-8.613 12.279 0 23.391 4.899 31.643 12.805l59.505-60.639c-5.195-7.413-8.284-16.438-8.284-26.152 0-25.314 20.58-45.894 45.877-45.894s45.894 20.58 45.894 45.894c0 13.841-6.312 26.12-16.026 34.536l85.262 148.382c6.033-2.893 12.673-4.635 19.774-4.635 25.298 0 45.877 20.563 45.877 45.877 0 25.281-20.58 45.861-45.877 45.861-25.314 0-45.877-20.58-45.877-45.861 0-14.416 6.789-27.171 17.26-35.587l-85.114-148.103c-6.378 3.304-13.495 5.392-21.171 5.392-11.786 0-22.421-4.57-30.558-11.918l-59.784 60.935c4.668 7.2 7.463 15.763 7.463 24.985 0 25.281-20.58 45.861-45.861 45.861-25.297 0-45.894-20.58-45.894-45.861 0-11.589 4.454-22.043 11.555-30.13l-88.007-115.228 8.367-6.378zM452.479 399.685c13.726 0 24.903-11.177 24.903-24.903 0-13.742-11.178-24.92-24.903-24.92-13.742 0-24.92 11.178-24.92 24.92 0.017 13.742 11.178 24.903 24.919 24.903zM317.575 175.542c13.759 0 24.92-11.178 24.92-24.903 0-13.759-11.161-24.903-24.919-24.903-13.742 0-24.919 11.144-24.919 24.903 0.017 13.726 11.178 24.903 24.919 24.903zM188.836 295.422c13.726 0 24.887-11.194 24.887-24.92s-11.161-24.919-24.887-24.919c-13.742 0-24.919 11.194-24.919 24.919s11.178 24.92 24.919 24.92z" horiz-adv-x="523" />
<glyph unicode="&#xe025;" d="M260.010 406.3c-60.542 0-109.633-49.087-109.633-109.637 0-60.546 49.091-109.637 109.633-109.637 60.554 0 109.645 49.091 109.645 109.637 0.004 60.55-49.087 109.637-109.645 109.637zM332.788 307.513l-26.571-26.051 6.18-36.681c0.845-5.014-1.215-10.073-5.336-13.064-2.332-1.695-5.091-2.556-7.871-2.556-2.117 0-4.247 0.5-6.197 1.519l-32.983 17.217-32.983-17.217c-4.494-2.353-9.947-1.946-14.068 1.036-4.108 2.99-6.168 8.046-5.323 13.064l6.18 36.681-26.571 26.051c-3.637 3.555-4.929 8.867-3.361 13.698 1.572 4.832 5.742 8.366 10.773 9.111l36.803 5.457 16.563 33.317c2.263 4.547 6.908 7.424 11.988 7.424 5.084 0 9.736-2.877 11.988-7.424l16.575-33.317 36.803-5.457c5.022-0.748 9.204-4.279 10.772-9.111 1.565-4.836 0.264-10.143-3.361-13.698zM503.702 55.227c-22.163 11.178-43.26 24.853-63.257 39.517-26.62 19.529-59.12 46.762-69.941 80.128 12.678 6.924 21.955 18.936 25.356 33.178l5.205 21.894 13.133 18.281c9.785 13.621 12.3 31.151 6.753 46.974l-7.452 21.24 1.166 22.475c0.873 16.741-6.49 32.857-19.716 43.162l-17.75 13.841-11.171 19.537c-8.318 14.556-23.219 24.133-39.92 25.653l-22.414 2.044-19.956 10.399c-14.873 7.745-32.585 7.745-47.462 0l-19.952-10.399-22.414-2.044c-16.701-1.519-31.602-11.097-39.919-25.653l-11.174-19.537-17.745-13.849c-13.222-10.305-20.585-26.421-19.712-43.163l1.154-22.475-7.441-21.24c-5.559-15.823-3.031-33.353 6.749-46.974l13.125-18.281 5.218-21.894c2.759-11.581 9.411-21.666 18.623-28.762-9.256-35.478-43.524-63.866-71.241-84.545-19.838-14.803-41.135-28.359-63.257-39.517-7.907-3.986-2.361-16.534 5.949-14.116 39.404 11.5 78.816 23.003 118.223 34.503-8.594-25.661-17.201-51.33-25.803-76.991-2.031-6.046 5.888-12.841 11.337-8.721 48.681 36.762 90.039 88.121 114.9 144.327 1.683 0.163 3.352 0.386 5.023 0.711l22.085 4.352 18.461-3.641c24.783-56.759 66.434-108.674 115.525-145.75 5.449-4.125 13.369 2.67 11.337 8.721-8.599 25.661-17.205 51.33-25.803 76.991 39.404-11.5 78.815-23.003 118.223-34.503 8.314-2.413 13.861 10.135 5.953 14.125zM154.486 44.779c-7.704-8.411-15.819-16.469-24.198-24.214 7.217 21.516 14.425 43.032 21.642 64.548 1.877 5.615-4.059 11.085-9.5 9.5-25.153-7.347-50.306-14.678-75.459-22.024 7.534 5.246 14.913 10.666 22.13 16.25 27.4 21.166 56.584 48.843 67.316 82.887l19.761-7.822 16.226-15.596c6.81-6.546 15.181-10.988 24.141-13.044-15.551-33.268-37.206-63.358-62.058-90.486zM131.332 296.663c0 71.070 57.612 128.683 128.678 128.683 71.079 0 128.691-57.612 128.691-128.683 0-71.067-57.612-128.683-128.691-128.683-71.067 0-128.679 57.617-128.679 128.683zM357.502 44.779c-24.694 26.526-46.101 56.543-61.546 89.38 11.736 0.898 22.975 5.795 31.671 14.153l16.226 15.591 12.646 5.002c11.426-32.78 39.834-59.168 66.397-80.071 7.070-5.571 14.368-10.955 21.809-16.156-25.048 7.315-50.091 14.62-75.138 21.926-5.441 1.585-11.378-3.885-9.5-9.5 7.217-21.524 14.438-43.057 21.654-64.585-8.387 7.769-16.433 15.897-24.219 24.259z" />
<glyph unicode="&#xe026;" d="M267.791 189.373l-170.839 150.021h341.673zM199.737 221.875l-119.726-105.139v210.279zM215.255 208.245l52.536-46.131 52.526 46.131 118.416-103.987h-341.888zM335.836 221.87l119.731 105.144v-210.279z" />
<glyph unicode="&#xe027;" d="M512 335.188l-256-230.413-256 230.413 7.237 8.036 248.763-223.881 248.764 223.88 7.236-8.036z" />
<glyph unicode="&#xe028;" d="M343.688 136.488c-0.128-0.080-0.2-0.184-0.336-0.264-1.432-0.824-3.080-1.264-4.768-1.264-5.712 0-10.52 4.472-19.216 13.048-0.736 0.72-1.592 1.56-2.488 2.44 0.048-1.216 0.104-2.384 0.144-3.384 0.624-13.424 1.064-23.136-7.304-25.856-0.928-0.304-1.904-0.48-2.888-0.48-6.904 0-11.344 6.704-18.064 16.92-0.576 0.872-1.24 1.784-1.944 2.84-0.208-1.176-0.392-2.504-0.552-3.48-2.208-13.28-3.8-23.272-12.56-24.184l-0.544-0.824h-0.416c-8.056 0-11.416 9.192-16.064 21.104-0.392 1.008-0.856 2.776-1.344 4.008-0.488-1.224-0.952-2.8-1.344-3.808-4.664-11.912-8.024-21.304-16.080-21.304h-0.552l-0.416 0.832c-8.768 0.912-10.36 11.296-12.568 24.576-0.16 0.976-0.352 2.112-0.552 3.288-0.704-1.056-1.376-2.072-1.944-2.944-6.72-10.216-11.16-16.968-18.072-16.968-0.984 0-1.96 0.152-2.896 0.456-8.368 2.72-7.92 12.416-7.296 25.84 0.048 1 0.104 2.168 0.144 3.376-0.896-0.872-1.752-1.72-2.488-2.44-8.696-8.576-13.504-13.048-19.224-13.048-1.688 0-3.344 0.44-4.776 1.264-0.608 0.352-1.040 0.784-1.52 1.192l-24.104-63.64c-3.128-8.264 1.28-13.224 9.856-11.072l22.792 5.712c8.568 2.144 20.192-1.544 25.952-8.24l19.728-22.936c5.76-6.696 12.464-5.264 14.968 3.216l16.824 56.968c2.504 8.472 5.256 12.544 6.152 9.080l1.616-6.264 22.632-91.392c2.128-8.576 7.464-9.344 11.92-1.72l10.32 17.648c4.464 7.624 14.936 11.744 23.4 9.2l46.136-13.888c8.464-2.544 12.792 2.088 9.68 10.36l-39.944 106.032zM390.6 302.904c-0.552 5.328 30.184 15.536 29.096 20.688-1.104 5.224-33.352 2.104-34.976 7.12-1.648 5.072 26.28 21.488 24.128 26.312-0.456 1.016-2.16 1.392-4.608 1.392-6.912 0-19.704-3.008-26.592-3.008-2.32 0-3.968 0.344-4.496 1.256-2.664 4.6 21.224 26.48 18.112 30.76-0.376 0.52-1.112 0.736-2.128 0.736-6.48 0-24.224-9.136-30.688-9.136-0.936 0-1.632 0.192-2.032 0.632-3.552 3.944 15.288 30.296 11.344 33.848-0.304 0.272-0.728 0.4-1.248 0.4-5.832 0-24.256-15.512-30.096-15.512-0.464 0-0.856 0.096-1.144 0.312-4.28 3.12 8.696 32.8 4.096 35.464-0.224 0.128-0.48 0.192-0.768 0.192-5.408 0-21.84-21.544-27.28-21.544-0.24 0-0.456 0.048-0.648 0.136-4.824 2.152 1.68 33.896-3.4 35.544-0.136 0.040-0.272 0.080-0.424 0.080-5.208 0-17.64-26.824-22.912-26.824-0.104 0-0.2 0.072-0.296 0.088-5.152 1.088-5.432 34.16-10.76 34.16-0.008 0-0.096 0-0.136 0-5.208 0-12.088-31.104-17.416-31.104-5.232 0-11.968 29.992-17.144 31.008-0.168 0.016-0.32 0.056-0.488 0.056-5.24-0.384-5.544-33.040-10.664-34.128-0.096-0.024-0.192-0.152-0.296-0.152-5.272 0-17.696 26.856-22.904 26.856-0.144 0-0.288-0.024-0.424-0.064-5.072-1.648 1.424-33.384-3.4-35.536-0.192-0.088-0.416-0.128-0.648-0.128-5.44 0-21.872 21.544-27.28 21.544-0.288 0-0.544-0.064-0.768-0.192-4.6-2.664 8.376-32.344 4.088-35.464-0.296-0.216-0.68-0.312-1.144-0.312-5.84 0-24.264 15.512-30.088 15.512-0.52 0-0.944-0.128-1.248-0.4-3.944-3.552 14.896-29.904 11.344-33.848-0.392-0.44-1.096-0.632-2.032-0.632-6.464 0-24.216 9.136-30.688 9.136-1.016 0-1.752-0.224-2.128-0.736-3.12-4.28 20.768-26.16 18.104-30.768-0.528-0.912-2.176-1.256-4.496-1.256-6.888 0-19.68 3.008-26.592 3.008-2.44 0-4.152-0.376-4.608-1.392-2.152-4.824 25.768-21.24 24.12-26.312-1.632-5.016-33.872-1.896-34.984-7.12-1.088-5.152 29.648-15.36 29.096-20.688-0.544-5.224-32.736-8.872-32.736-14.24s32.192-9.016 32.736-14.24c0.552-5.328-30.184-15.536-29.096-20.688 1.104-5.224 33.352-2.104 34.976-7.12 1.648-5.072-26.28-21.488-24.128-26.312 0.456-1.016 2.16-1.392 4.608-1.392 6.912 0 19.704 3.008 26.592 3.008 2.32 0 3.968-0.344 4.496-1.256 2.664-4.6-21.224-26.48-18.112-30.76 0.376-0.52 1.112-0.736 2.128-0.736 6.48 0 24.224 9.136 30.688 9.136 0.936 0 1.632-0.192 2.032-0.632 3.552-3.944-15.288-30.296-11.344-33.848 0.304-0.272 0.728-0.4 1.248-0.4 5.832 0 24.256 15.512 30.096 15.512 0.464 0 0.856-0.104 1.144-0.312 3.048-2.216-2.624-17.848-4.504-27.664-0.76-3.976-0.92-7.032 0.408-7.8 0.224-0.128 0.48-0.192 0.768-0.192 5.408 0 21.84 21.536 27.28 21.528 0.24 0 0.456-0.064 0.648-0.152 4.824-2.152-1.68-33.936 3.4-35.584 0.136-0.040 0.272-0.16 0.424-0.16 5.208 0 17.64 26.664 22.912 26.656 0.104 0 0.2-0.4 0.296-0.424 5.16-1.080 5.44-34.816 10.768-34.816 0.048 0 0.088 0 0.136 0 5.208 0 12.088 31.104 17.416 31.104 5.32 0 12.208-31.104 17.416-31.104 0.048 0 0.088 0 0.136 0 5.328 0 5.608 33.736 10.752 34.824 0.096 0.024 0.192 0.816 0.296 0.816 5.272 0 17.696-26.856 22.904-26.856 0.144 0 0.288 0.024 0.424 0.064 5.072 1.648-1.424 33.384 3.4 35.536 0.192 0.088 0.416 0.128 0.648 0.128 5.44 0 21.872-21.544 27.28-21.544 0.288 0 0.544 0.064 0.768 0.192 0.592 0.344 0.888 1.144 0.968 2.272 0.568 7.608-8.792 30.48-5.064 33.192 0.296 0.216 0.68 0.312 1.144 0.312 5.84 0 24.264-15.512 30.088-15.512 0.52 0 0.944 0.128 1.248 0.4 3.944 3.552-14.896 29.904-11.344 33.848 0.392 0.44 1.096 0.632 2.032 0.632 6.464 0 24.216-9.136 30.688-9.136 1.016 0 1.752 0.224 2.128 0.736 3.12 4.28-20.768 26.16-18.104 30.768 0.528 0.912 2.176 1.256 4.496 1.256 6.888 0 19.68-3.008 26.592-3.008 2.44 0 4.152 0.376 4.608 1.392 2.152 4.824-25.768 21.24-24.12 26.312 1.632 5.016 33.872 1.896 34.984 7.12 1.088 5.152-29.648 15.36-29.096 20.688 0.544 5.224 32.736 8.872 32.736 14.24s-32.2 9.008-32.744 14.232zM324.92 186.304c-19.808-13.224-43.64-20.968-69.256-20.968-26.36 0-50.792 8.24-70.928 22.176-32.232 22.304-53.4 59.296-53.4 101.152 0 68.008 55.776 123.336 124.328 123.336 68.56 0 124.336-55.328 124.336-123.336 0-42.584-21.88-80.192-55.080-102.36zM255.664 388c-55.32 0-100.328-44.56-100.328-99.336 0-31.552 14.984-59.656 38.224-77.864 17.104-13.4 38.656-21.464 62.104-21.464 22.728 0 43.64 7.608 60.48 20.256 24.16 18.152 39.856 46.792 39.856 79.072 0 54.776-45.008 99.336-100.336 99.336zM254.408 336h9.592v-88h-8v80h-3.296l-16.12-10.040-2.424 8.368 20.248 9.672z" />
<glyph unicode="&#xe029;" d="M398.656 416.728c-0.952-0.416-96.768-41.736-157.088 10.016-69.344 59.504-135.736 0.448-136.384-0.16l-2.592-2.36-0.4-432.528 15.888-0.024 0.256 274.040c11.528 9.144 60.6 42.664 112.88-2.208 67.856-58.224 169.528-14.392 173.832-12.496l4.768 2.096v168.544l-11.16-4.92zM393.904 263.672c-20.112-7.576-99.704-33.248-152.336 11.896-23.192 19.904-46.048 26.536-66.232 26.536-24.176 0-44.536-9.536-56.976-17.216l0.104 132.112c11.768 9.32 60.672 42.384 112.752-2.312 55.56-47.664 133.816-26.92 162.688-16.8v-134.216z" />
<glyph unicode="&#xe02a;" d="M234.665 310.533v43.177h-147.113v-306.35h340.163v263.173h-193.049zM417.474 57.6h-319.683v202.24h319.683v-202.24zM97.792 270.080v73.385h126.633v-43.177h193.050v-30.208h-319.683z" />
<glyph unicode="&#xe02b;" d="M97.792 259.84h319.683v-202.24h-317.44zM97.792 270.080v73.385h126.633v-43.172h193.050v-30.213z" />
<glyph unicode="&#xe02c;" d="M433.27 229.12h-0.123c-1.203 41.759-17.080 81.649-45.087 112.809-32.65 36.332-79.022 57.482-127.703 58.481v0.098h-8.72v-0.098c-48.681-0.998-95.053-22.149-127.698-58.481-28.011-31.16-43.883-71.050-45.092-112.809h-0.118v-10.24h0.118c1.209-41.759 17.085-81.644 45.097-112.809 32.645-36.337 79.022-57.488 127.698-58.486v-0.098h8.719v0.098c48.681 0.998 95.053 22.149 127.703 58.481 28.007 31.161 43.879 71.055 45.087 112.814h0.113v4.905c0 0.072 0.005 0.144 0.005 0.215v5.12zM422.942 229.12h-67.733c-0.563 23.946-5.079 47.202-13.461 69.269 15.728 8.653 29.931 19.538 42.332 32.466 24.043-28.621 37.719-64.363 38.861-101.734zM183.245 144.763c21.033 10.153 43.484 15.637 66.877 16.333v-96.087c-28.964 18.509-52.398 46.433-66.877 79.754zM261.878 276.659c24.714 0.697 48.44 6.421 70.697 17.054 7.685-20.598 11.848-42.27 12.396-64.594h-83.092v47.539zM261.878 286.899v96.087c28.959-18.503 52.393-46.423 66.877-79.754-21.033-10.148-43.484-15.636-66.877-16.333zM250.117 286.899c-23.388 0.697-45.834 6.185-66.877 16.338 14.48 33.326 37.913 61.245 66.877 79.749v-96.087zM179.42 293.714c22.256-10.634 45.977-16.358 70.692-17.055v-47.539h-83.088c0.553 22.323 4.71 44.001 12.395 64.594zM250.122 218.88v-47.539c-24.714-0.697-48.44-6.421-70.692-17.060-7.69 20.598-11.847 42.276-12.4 64.599h83.093zM261.878 161.101c23.388-0.702 45.839-6.185 66.882-16.333-14.479-33.331-37.913-61.25-66.882-79.749v96.082zM332.58 154.286c-22.257 10.634-45.983 16.358-70.702 17.055v47.539h83.093c-0.543-22.323-4.705-44.002-12.39-64.594zM377.139 338.576c-11.52-12.119-24.704-22.344-39.312-30.521-14.827 33.751-38.416 62.218-67.538 81.659 40.519-3.328 78.654-21.529 106.85-51.138zM241.705 389.714c-29.123-19.44-52.715-47.908-67.538-81.659-14.607 8.176-27.791 18.401-39.316 30.521 28.201 29.609 66.329 47.81 106.855 51.138zM127.913 330.855c12.401-12.928 26.604-23.813 42.332-32.466-8.376-22.072-12.898-45.322-13.46-69.269h-67.737c1.147 37.371 14.823 73.118 38.866 101.735zM89.047 218.88h67.743c0.563-23.957 5.084-47.207 13.46-69.274-15.734-8.653-29.936-19.538-42.332-32.461-24.043 28.615-37.724 64.358-38.871 101.735zM134.856 109.425c11.52 12.109 24.699 22.339 39.316 30.521 14.828-33.751 38.416-62.218 67.543-81.659-40.525 3.323-78.653 21.524-106.859 51.139zM270.29 58.286c29.123 19.44 52.716 47.908 67.538 81.659 14.618-8.187 27.806-18.411 39.322-30.521-28.201-29.609-66.334-47.815-106.859-51.139zM384.087 117.146c-12.396 12.918-26.594 23.803-42.332 32.466 8.382 22.067 12.897 45.317 13.461 69.269h67.733c-1.142-37.376-14.817-73.118-38.861-101.734z" />
<glyph unicode="&#xe02d;" d="M256 444.712c-122.512 0-222.168-99.664-222.168-222.168 0-122.512 99.664-222.16 222.168-222.16s222.168 99.64 222.168 222.16c0 122.504-99.664 222.168-222.168 222.168zM256 20.312c-111.504 0-202.232 90.72-202.232 202.232s90.728 202.224 202.232 202.224c111.496 0 202.232-90.712 202.232-202.216 0-111.52-90.736-202.24-202.232-202.24zM257.624 359.176c-18.68 0-38.816-5.136-51.728-13l5.832-15.36c10.784 6.104 25.168 9.864 38.544 9.864 27.72-0.456 44.216-15.616 44.216-40.568 0-20.288-10.936-37.168-29.856-59.456-18.4-22.072-26.496-44.456-24.064-66.512l0.456-5.784h21.152l-0.176 4.976c-1.344 22.72 5.992 41.832 24.552 63.752 19.792 23.504 33.824 42.12 33.824 67.52-0.008 25.184-16.448 54.568-62.752 54.568zM251.504 126.048c-11.408 0-19.048-8.144-19.048-20.256 0-11.704 7.664-19.88 18.624-19.88 11.416 0 19.064 7.992 19.064 19.88 0.008 12.112-7.488 20.256-18.64 20.256z" />
<glyph unicode="&#xe02e;" d="M256 70.4c-87.516 0-158.72 71.198-158.72 158.72s71.204 158.72 158.72 158.72 158.72-71.199 158.72-158.72-71.204-158.72-158.72-158.72zM256 377.6c-81.874 0-148.48-66.611-148.48-148.48s66.606-148.48 148.48-148.48 148.48 66.611 148.48 148.48-66.606 148.48-148.48 148.48zM240.2 194.432l-0.476 6.231c-1.439 12.943 2.877 27.085 14.858 41.467 10.788 12.697 16.778 22.047 16.778 32.834 0 12.226-7.67 20.373-22.768 20.613-8.632 0-18.217-2.877-24.208-7.429l-5.755 15.099c7.911 5.755 21.571 9.59 34.274 9.59 27.566 0 40.023-17.019 40.023-35.231 0-16.302-9.103-28.048-20.608-41.708-10.547-12.462-14.382-23.009-13.66-35.23l0.24-6.231h-18.698zM234.926 160.875c0 8.863 5.99 15.099 14.382 15.099 8.387 0 14.142-6.236 14.142-15.099 0-8.392-5.514-14.858-14.382-14.858-8.387 0-14.142 6.466-14.142 14.858z" />
<glyph unicode="&#xe02f;" d="M406.268 331.918c-0.024 1.901-0.634 3.775-1.93 5.262l-79.916 91.286c-0.017 0.021-0.041 0.033-0.065 0.053-0.476 0.536-1.024 0.971-1.609 1.357-0.175 0.114-0.349 0.219-0.533 0.317-0.516 0.28-1.048 0.504-1.605 0.671-0.151 0.044-0.284 0.109-0.443 0.142-0.601 0.147-1.231 0.231-1.857 0.231h-196.405c-8.96 0-16.254-7.29-16.254-16.254v-381.969c0-8.96 7.294-16.254 16.254-16.254h268.19c8.96 0 16.254 7.294 16.254 16.254v297.992c0 0.305-0.049 0.606-0.082 0.91zM121.905 414.984h188.278v-83.159c0-4.486 3.637-8.127 8.127-8.127h71.786l0.008-168.436h-268.199v259.722zM184.555 55.507h-16.286v31.049h-26.897v-31.049h-16.38v74.207h16.38v-28.517h26.897v28.517h16.286v-74.207zM248.832 115.618h-19.708v-60.111h-16.388v60.111h-19.387v14.096h55.483v-14.096zM319.224 55.507l-1.073 28.404c-0.317 8.92-0.642 19.708-0.642 30.5h-0.317c-2.255-9.468-5.254-20.041-8.041-28.737l-8.777-28.952h-12.747l-7.712 28.729c-2.357 8.7-4.827 19.269-6.538 28.961h-0.216c-0.426-10.024-0.756-21.471-1.276-30.72l-1.292-28.188h-15.104l4.604 74.207h21.748l7.070-24.771c2.255-8.586 4.498-17.839 6.111-26.534h0.317c2.040 8.59 4.498 18.383 6.859 26.644l7.712 24.661h21.317l3.962-74.207h-15.966zM392.834 55.507h-45.105v74.207h16.388v-60.111h28.712v-14.096zM164.746 243.802l62.261-28.924v13.747l-47.088 20.622v0.26l47.088 20.627v13.747l-62.261-28.924zM236.617 209.688h13.096l27.754 94.038h-13.092zM285.001 270.133l48.124-20.627v-0.26l-48.124-20.622v-13.747l62.252 28.534v11.935l-62.252 28.534z" />
<glyph unicode="&#xe030;" d="M83.2 318.413v-198.881h345.6v198.881h-345.6zM418.56 308.173v-109.107l-61.942 60.754-52.224-66.586-67.313 31.257-44.339-15.298-52.536 35.461-46.771-45.63v109.148h325.125zM93.44 129.776v54.942l47.949 46.781 49.863-33.659 45.261 15.621 70.927-32.942 50.176 63.975 60.943-59.766v-54.953h-325.12zM195.84 239.36c14.822 0 26.88 12.058 26.88 26.88s-12.058 26.88-26.88 26.88-26.88-12.058-26.88-26.88 12.058-26.88 26.88-26.88zM195.84 282.88c9.175 0 16.64-7.465 16.64-16.64s-7.465-16.64-16.64-16.64-16.64 7.465-16.64 16.64 7.465 16.64 16.64 16.64z" />
<glyph unicode="&#xe031;" d="M208.722 239.826c0 0 0.005 0 0 0 5.227 0 10.429 0.768 15.468 2.284 9.017 2.708 17.214 7.798 23.706 14.73l6.026 6.436-8.576 2.043c-15.13 3.61-27.294 15.043-31.749 29.834-4.444 14.797-0.594 31.042 10.046 42.404l6.026 6.436-8.576 2.043c-9.232 2.202-18.873 1.94-27.894-0.773-28.441-8.546-44.626-38.636-36.076-67.082 6.794-22.579 28.012-38.354 51.6-38.354zM196.147 335.462c4.030 1.209 8.197 1.822 12.386 1.822 0.63 0 1.26-0.015 1.884-0.041-8.648-13.2-11.218-29.737-6.62-45.031 4.598-15.288 15.857-27.663 30.336-33.91-3.906-2.831-8.263-4.997-12.882-6.384-4.086-1.229-8.299-1.849-12.518-1.849 0 0 0 0-0.005 0-19.102 0-36.291 12.78-41.794 31.068-6.928 23.030 6.185 47.396 29.214 54.323zM97.244 391.834v-339.81h339.814v339.81h-339.815zM426.818 381.594v-202.189l-87.921 72.596-83.712-92.109-78.633 52.997-69.069-81.582v250.286h319.334zM107.484 62.264v53.192l70.953 83.815 78.372-52.813 83.098 91.433 86.912-71.767v-103.854h-319.334z" />
<glyph unicode="&#xe032;" d="M64 352v-320h448v320h-448zM480 85.333l-64 106.667-72.533-60.443-55.467 92.443-192-160v256h384v-234.667zM128 240c0-26.51 21.49-48 48-48s48 21.49 48 48-21.49 48-48 48-48-21.49-48-48zM448 416h-448v-320h32v288h416v32z" />
<glyph unicode="&#xe033;" d="M239.376 393.336v-11.2h226.624v-316.272h-226.624v-11.2h237.808v338.672zM266.672 115.912l11.040-11.048 119.144 119.144-119.144 119.144-11.040-11.032 100.288-100.296h-332.144v-15.624h332.136z" />
<glyph unicode="&#xe034;" d="M461.304 246.113l-34.69 46.157-10.325 56.803c-3.206 17.627-17.274 31.167-35.023 33.687l-57.161 8.106-47.466 32.865c-11.926 8.257-26.977 9.716-40.269 3.905-2.938-1.284-5.73-2.913-8.31-4.852l-46.153-34.686-56.808-10.325c-3.169-0.577-6.266-1.524-9.208-2.808-13.088-5.721-22.467-18.067-24.475-32.212l-8.106-57.161-32.87-47.474c-10.2-14.73-9.822-34.255 0.943-48.579l34.69-46.149 10.322-56.803c3.206-17.635 17.274-31.167 35.023-33.69l57.165-8.111 47.462-32.865c11.748-8.135 27.177-9.635 40.269-3.905 2.942 1.284 5.746 2.921 8.314 4.848l46.157 34.69 56.812 10.325c3.166 0.573 6.262 1.515 9.204 2.8 13.089 5.721 22.463 18.062 24.474 32.216l8.106 57.165 32.87 47.469c10.195 14.738 9.813 34.263-0.947 48.583zM256.341 66.072c-83.7 0-151.792 68.096-151.792 151.792 0 83.704 68.092 151.796 151.792 151.796s151.792-68.092 151.792-151.796c0-83.695-68.092-151.792-151.792-151.792zM296.643 227.726c-0.101 0.748-0.195 1.492-0.337 2.219-0.142 0.719-0.333 1.418-0.508 2.117-0.13 0.524-0.252 1.056-0.402 1.569-0.244 0.821-0.529 1.618-0.825 2.418-0.134 0.362-0.256 0.732-0.398 1.089-0.358 0.89-0.752 1.763-1.171 2.625-0.11 0.227-0.216 0.459-0.333 0.686-0.479 0.939-0.995 1.857-1.54 2.751-0.073 0.126-0.147 0.248-0.224 0.365-0.598 0.959-1.236 1.893-1.91 2.796-0.033 0.044-0.069 0.089-0.098 0.134-0.715 0.942-1.463 1.861-2.255 2.743-7.457 8.314-18.253 13.576-30.298 13.576-12.048 0-22.841-5.258-30.302-13.576v0c-0.797-0.886-1.553-1.809-2.268-2.759-0.024-0.036-0.053-0.073-0.082-0.106-0.679-0.91-1.321-1.857-1.922-2.82-0.073-0.109-0.138-0.224-0.207-0.338-0.553-0.902-1.069-1.828-1.553-2.775-0.109-0.22-0.212-0.443-0.321-0.667-0.423-0.865-0.821-1.743-1.179-2.645-0.142-0.35-0.26-0.711-0.394-1.065-0.297-0.804-0.585-1.609-0.829-2.438-0.155-0.508-0.268-1.032-0.403-1.553-0.179-0.707-0.37-1.41-0.512-2.13-0.142-0.732-0.236-1.475-0.338-2.219-0.077-0.544-0.179-1.081-0.236-1.637-0.13-1.316-0.203-2.654-0.203-4.007 0-22.507 18.241-40.736 40.733-40.736 22.488 0 40.733 18.229 40.733 40.736 0 1.353-0.073 2.69-0.203 4.006-0.036 0.556-0.142 1.097-0.219 1.637zM256.353 196.197c-14.308 0-25.885 11.581-25.885 25.889 0 4.933 1.439 9.48 3.828 13.393-0.378-1.211-0.638-2.483-0.638-3.832 0-7.245 5.871-13.129 13.121-13.129 7.254 0 13.121 5.888 13.121 13.129 0 7.254-5.868 13.129-13.121 13.129-1.337 0-2.605-0.252-3.828-0.63 3.917 2.377 8.464 3.828 13.394 3.828 14.296 0 25.897-11.577 25.897-25.884s-11.601-25.892-25.889-25.892zM311.507 296.765h-110.32c-10.76 0-19.517-8.761-19.517-19.521v-28.006h27.713c9.411 16.205 26.912 27.157 46.966 27.157s37.555-10.947 46.966-27.157h27.713v28.006c-0.004 10.76-8.753 19.521-19.521 19.521zM324.238 269.608c0-3.738-3.051-6.79-6.79-6.79h-13.58c-3.738 0-6.786 3.052-6.786 6.79v13.576c0 3.739 3.048 6.786 6.786 6.786h13.58c3.738 0 6.79-3.048 6.79-6.786v-13.576zM256.341 355.344c-75.805 0-137.48-61.671-137.48-137.48 0-75.8 61.672-137.476 137.48-137.476s137.48 61.675 137.48 137.476c0 75.808-61.675 137.48-137.48 137.48zM344.604 166.928c0-18.286-14.812-33.101-33.097-33.101h-110.32c-18.281 0-33.097 14.815-33.097 33.101v110.32c0 18.286 14.816 33.097 33.097 33.097h110.32c18.286 0 33.097-14.812 33.097-33.097v-110.32z" />
<glyph unicode="&#xe035;" d="M149.496 243.322c-3.816-0.069-6.404-0.495-7.753-0.902v-25.445c1.589-0.386 3.548-0.508 6.27-0.5 10.057 0.012 16.319 5.336 16.319 14.275-0.004 8.037-5.393 12.735-14.836 12.572zM302.56 41.822c0.581-0.033 1.166-0.086 1.764-0.086h134.095c15.681 0 28.445 12.764 28.445 28.445v310.857c0 15.681-12.764 28.445-28.445 28.445h-134.095c-0.594 0-1.183-0.057-1.764-0.085v37.103l-261.729-34.93v-372.159l261.729-35.832v38.241zM304.323 393.224h134.095c6.721 0 12.19-5.469 12.19-12.19v-250.23c-10.414 26.783-23.178 62.866-42.435 57.942-23.007-5.88-34.491-59.615-34.491-59.615h76.93v-58.957c0-6.721-5.469-12.19-12.19-12.19h-134.095c-0.601 0-1.183 0.094-1.764 0.179v70.973h71.115c0 0-11.768 60.639-44.239 93.127-9.277 9.281-18.476 5.632-26.88-4.291v78.21c3.56-5.681 9.829-9.484 17.038-9.484 11.118 0 20.127 9.005 20.127 20.126s-9.009 20.119-20.127 20.119c-7.209 0-13.478-3.804-17.038-9.48v75.585c0.581 0.086 1.158 0.179 1.764 0.179zM108.361 203.004c0-24.060-10.752-32.175-27.762-31.728-3.962 0.101-9.151 0.983-12.523 2.288l1.922 15.002c2.357-0.898 5.397-1.557 8.793-1.609 7.286-0.122 11.882 3.389 11.882 16.413v52.57l17.692 0.455v-53.39zM175.6 210.513c-6.603-6.351-16.286-9.139-27.461-9.058-2.458 0.017-4.681 0.163-6.396 0.426v-30.813l-18.294 0.471v84.106c5.652 1.158 13.65 2.125 25.056 2.43 11.683 0.3 20.119-1.813 25.82-6.363 5.506-4.323 9.216-11.593 9.216-20.236-0.004-8.659-2.82-16.002-7.94-20.964zM204.519 180.606c-8.127 7.818-12.565 19.473-12.43 32.512 0.126 29.505 21.573 46.934 51.525 47.718 12.065 0.317 21.475-1.772 26.145-3.848l-4.531-16.859c-5.214 2.117-11.634 3.787-21.898 3.617-17.319-0.288-30.2-10.102-30.2-29.566 0-18.534 11.658-29.663 28.692-29.948 4.82-0.082 8.7 0.402 10.366 1.19v19.216l-14.348 0.082v16.087l35.055 0.134v-48.953c-6.676-2.044-19.16-4.738-31.484-4.421-16.75 0.443-28.676 4.889-36.893 13.039zM387.567 238.259c4.063 0 7.867 0.418 11.248 1.101 3.938-1.69 8.721-2.702 13.93-2.702 13.3 0 24.089 6.514 24.089 14.531 0 8.033-10.784 14.539-24.089 14.539-4.998 0-9.627-0.914-13.483-2.483-1.572 1.519-3.698 2.483-6.055 2.483h-3.49c-4.462 0-8.001-3.389-8.509-7.712-10.809-1.125-18.793-5.018-18.793-9.691-0.004-5.559 11.256-10.066 25.153-10.066z" />
<glyph unicode="&#xe036;" d="M406.268 331.914c-0.024 1.901-0.634 3.779-1.938 5.262l-79.909 91.282c-0.024 0.025-0.049 0.033-0.065 0.057-0.476 0.533-1.032 0.971-1.618 1.357-0.175 0.114-0.349 0.215-0.533 0.317-0.508 0.276-1.041 0.504-1.605 0.671-0.151 0.044-0.284 0.105-0.435 0.146-0.601 0.147-1.231 0.232-1.865 0.232h-196.397c-8.96 0-16.254-7.294-16.254-16.254v-381.969c0-8.964 7.294-16.254 16.254-16.254h268.19c8.96 0 16.254 7.29 16.254 16.254v297.988c0 0.305-0.049 0.606-0.082 0.91zM186.673 75.073c0-28.083-13.463-37.88-35.105-37.88-5.12 0-11.849 0.873-16.238 2.341l2.491 17.989c3.072-1.024 7.018-1.76 11.406-1.76 9.367 0 15.214 4.247 15.214 19.603v62.017h22.232v-62.31zM266.983 83.993c-7.611-7.168-18.875-10.382-32.032-10.382-2.93 0-5.563 0.142-7.611 0.435v-35.251h-22.089v97.268c6.88 1.175 16.53 2.048 30.135 2.048 13.747 0 23.548-2.629 30.135-7.896 6.286-4.974 10.524-13.161 10.524-22.817 0.004-9.651-3.21-17.847-9.062-23.406zM372.594 43.333c-6.872-2.341-19.891-5.559-32.914-5.559-17.985 0-31.009 4.535-40.070 13.308-9.070 8.485-14.048 21.353-13.897 35.836 0.142 32.764 23.983 51.485 56.308 51.485 12.731 0 22.532-2.483 27.356-4.827l-4.681-17.847c-5.413 2.341-12.142 4.243-22.967 4.243-18.57 0-32.61-10.533-32.61-31.89 0-20.329 12.723-32.325 31.009-32.325 5.12 0 9.216 0.589 10.967 1.467v20.618h-15.214v17.404h36.714v-51.911zM121.905 155.258v259.726h188.269v-83.163c0-4.486 3.641-8.127 8.127-8.127h71.794v-168.436h-268.19zM236.556 121.295c-4.531 0-7.603-0.439-9.216-0.882v-29.103c1.906-0.439 4.246-0.589 7.46-0.589 11.849 0 19.167 6.002 19.167 16.087 0 9.074-6.294 14.486-17.412 14.486zM233.907 248.043c-32.459 32.467-63.935-93.123-63.935-93.123h108.179c0 0-11.772 60.635-44.243 93.123zM312.641 214.536c-23.007-5.884-34.491-59.615-34.491-59.615h77.58c-10.533 26.921-23.434 64.642-43.089 59.615zM169.98 276.984c11.118 0 20.126 9.005 20.126 20.126s-9.009 20.119-20.126 20.119c-11.134 0-20.143-8.997-20.143-20.119s9.009-20.126 20.142-20.126zM292.039 264.046c4.063 0 7.863 0.418 11.248 1.101 3.938-1.69 8.721-2.702 13.93-2.702 13.296 0 24.089 6.51 24.089 14.531 0 8.029-10.788 14.535-24.089 14.535-5.002 0-9.627-0.914-13.486-2.483-1.568 1.519-3.698 2.483-6.050 2.483h-3.49c-4.466 0-8.005-3.385-8.513-7.712-10.805-1.121-18.793-5.019-18.793-9.688-0.004-5.563 11.256-10.065 25.157-10.065z" />
<glyph unicode="&#xe037;" d="M389.929 211.154h-121.959v121.964h-10.24v-121.964h-121.959v-10.24h121.959v-121.959h10.24v121.959h121.959z" />
<glyph unicode="&#xe038;" d="M442.921 31.415h-33.187v16.319c0 1.122-0.91 2.031-2.031 2.031s-2.031-0.91-2.031-2.031v-16.319h-36.572v16.319c0 1.122-0.91 2.031-2.031 2.031s-2.031-0.91-2.031-2.031v-16.319h-36.572v16.319c0 1.122-0.91 2.031-2.031 2.031s-2.031-0.91-2.031-2.031v-16.319h-36.572v16.319c0 1.122-0.91 2.031-2.031 2.031s-2.031-0.91-2.031-2.031v-16.319h-36.572v16.319c0 1.122-0.91 2.031-2.031 2.031s-2.031-0.91-2.031-2.031v-16.319h-36.572v16.319c0 1.122-0.91 2.031-2.031 2.031s-2.031-0.91-2.031-2.031v-16.319h-36.572v16.319c0 1.122-0.91 2.031-2.031 2.031s-2.031-0.91-2.031-2.031v-16.319h-36.572v16.319c0 1.122-0.91 2.031-2.031 2.031s-2.031-0.91-2.031-2.031v-16.319h-46.051v73.817h19.643c1.118 0 2.031 0.91 2.031 2.031s-0.915 2.031-2.031 2.031h-19.643v36.572h19.643c1.118 0 2.031 0.91 2.031 2.031s-0.915 2.031-2.031 2.031h-19.643v36.572h19.643c1.118 0 2.031 0.91 2.031 2.031s-0.915 2.031-2.031 2.031h-19.643v36.572h19.643c1.118 0 2.031 0.91 2.031 2.031s-0.915 2.031-2.031 2.031h-19.643v36.572h19.643c1.118 0 2.031 0.91 2.031 2.031s-0.915 2.031-2.031 2.031h-19.643v36.572h19.643c1.118 0 2.031 0.91 2.031 2.031s-0.915 2.031-2.031 2.031h-19.643v36.572h19.643c1.118 0 2.031 0.91 2.031 2.031s-0.915 2.031-2.031 2.031h-19.643v36.572h19.643c1.118 0 2.031 0.91 2.031 2.031s-0.915 2.031-2.031 2.031h-19.643v28.936c0 3.365-2.731 6.095-6.095 6.095s-6.095-2.731-6.095-6.095v-397.356c0-3.365 2.731-6.095 6.095-6.095h373.841c3.365 0 6.095 2.731 6.095 6.095s-2.731 6.095-6.095 6.095zM158.476 200.635c6.9 0 13.089 3.023 17.368 7.794l49.294-29.070c-1.775-3.291-2.787-7.054-2.787-11.048 0-12.882 10.484-23.365 23.365-23.365s23.365 10.484 23.365 23.365c0 7.493-3.56 14.153-9.062 18.436l33.731 89.373c1.857-0.476 3.791-0.756 5.795-0.756 7.363 0 13.933 3.434 18.216 8.773l52.813-46.311c-2.856-3.876-4.567-8.647-4.567-13.82 0-12.881 10.484-23.365 23.365-23.365s23.365 10.484 23.365 23.365-10.484 23.365-23.365 23.365c-6.25 0-11.923-2.478-16.116-6.494l-53.207 46.657c1.825 3.324 2.865 7.139 2.865 11.191 0 12.881-10.484 23.365-23.365 23.365s-23.365-10.484-23.365-23.365c0-9.447 5.649-17.587 13.735-21.264l-33.389-88.458c-3.234 1.699-6.912 2.674-10.813 2.674-7.432 0-14.048-3.498-18.331-8.923l-49.087 28.949c2.231 3.58 3.54 7.786 3.54 12.304 0 12.881-10.484 23.365-23.365 23.365s-23.365-10.484-23.365-23.365 10.488-23.369 23.369-23.369zM389.376 235.174c6.164 0 11.175-5.011 11.175-11.174s-5.010-11.175-11.175-11.175-11.175 5.010-11.175 11.175 5.010 11.174 11.175 11.174zM299.548 309.898c6.164 0 11.175-5.011 11.175-11.175s-5.010-11.175-11.175-11.175-11.175 5.011-11.175 11.175 5.010 11.175 11.175 11.175zM245.72 179.481c6.165 0 11.174-5.010 11.174-11.175s-5.011-11.175-11.174-11.175-11.174 5.010-11.174 11.175 5.011 11.175 11.174 11.175zM158.476 235.174c6.165 0 11.174-5.011 11.174-11.174s-5.011-11.175-11.174-11.175-11.174 5.010-11.174 11.175 5.011 11.174 11.174 11.174z" />
<glyph unicode="&#xe039;" d="M256 449.064c-74.8 0-135.64-60.856-135.64-135.64 0-71.928 124.328-294.336 129.624-303.768l6.016-10.72 6.024 10.72c5.288 9.44 129.616 231.84 129.616 303.768 0 74.784-60.856 135.64-135.64 135.64zM256 272.704c-28.176 0-51.104 22.928-51.104 51.112 0 28.192 22.928 51.12 51.104 51.12 28.192 0 51.12-22.928 51.12-51.12 0-28.184-22.936-51.112-51.12-51.112z" />
<glyph unicode="&#xe03a;" d="M0 399.496v-16.68l256.048-178.368 256.048 178.368v16.68zM256.048 168.904l-150.816 106.088-105.232 73.304v-282.688h512.096v282.688l-105.232-73.304z" />
<glyph unicode="&#xe03c;" d="M393.377 184.568c-57.55 18.798-81.473 42.173-81.473 42.173l-1.926-1.836c-17.091-16.086-35.993-25.543-53.212-25.543h-1.625c-17.219 0-36.12 9.457-53.211 25.542l-1.927 1.836c0 0-23.921-23.375-81.472-42.174-84.955-31.736-59.447-160.89-59.471-161.891 2.675-14.384 4.236-19.328 5.594-19.883 85.314-37.981 297.287-37.981 382.601 0 1.359 0.555 2.918 5.499 5.594 19.883-0.024 1 25.825 129.642-59.473 161.89zM345.175 349.336l-0.712 0.773c-4.78 4.377-4.406 4.125-4.406 4.125s8.337 42.069 1.651 61.964c-10.496 31.772-73.19 53.065-85.765 55.541 0.002 0.024-7.649 1.555-8.137 1.558 0 0-9.891 2-21.355-3-7.466-2.873-46.498-20.572-57.577-54.098-6.684-19.894 1.653-61.964 1.653-61.964s0.374 0.251-4.407-4.125l-0.712-0.773c-3.234-3.672-2.435-15.162 1.1-27.115 3.203-11.976 7.378-15.194 8.379-17.999 10.141-47.613 45.402-88.265 81.335-88.265s69.332 40.653 79.473 88.265c1.002 2.804 5.176 6.023 8.38 17.999 3.535 11.954 4.427 24.232 1.101 27.115z" />
<glyph unicode="&#xe03d;" d="M311.413 128.632c-11.056 1.759-11.308 32.157-11.308 32.157s32.484 32.158 39.564 75.401c19.045 0 30.809 45.973 11.761 62.148 0.796 17.027 24.481 133.662-95.43 133.662s-96.225-116.635-95.432-133.662c-19.047-16.175-7.285-62.148 11.761-62.148 7.079-43.243 39.564-75.401 39.564-75.401s-0.252-30.398-11.307-32.157c-35.61-5.666-168.586-64.317-168.586-128.632h448c0 64.315-132.976 122.966-168.587 128.632z" />
</font>
</defs>
</svg>
