<svg xmlns="http://www.w3.org/2000/svg" xmlns:xlink="http://www.w3.org/1999/xlink" preserveAspectRatio="xMidYMid" width="31.894" height="49.996" viewBox="0 0 185 290">
  <defs>
    <style>
      .cls-1 {
        fill: #fff;
      }

      .cls-2 {
        fill: #ee5d24;
        fill-rule: evenodd;
      }
    </style>
  </defs>
  <g>
    <circle cx="93" cy="89" r="77" class="cls-1"/>
    <path d="M92.502,20.652 C131.990,20.652 164.094,52.381 164.094,91.356 C164.094,130.331 131.990,162.037 92.502,162.037 C53.039,162.037 20.929,130.335 20.929,91.360 C20.929,52.385 53.039,20.652 92.502,20.652 M92.502,-0.002 C41.420,-0.002 -0.012,40.890 -0.012,91.356 C-0.012,141.801 92.502,290.002 92.502,290.002 C92.502,290.002 185.011,141.801 185.011,91.356 C185.011,40.890 143.611,-0.002 92.502,-0.002 ZM77.470,108.524 L73.684,102.458 L65.654,103.874 L76.206,85.377 L55.615,85.377 L55.615,134.025 L90.717,134.025 L90.717,85.377 L77.470,108.524 ZM135.225,62.167 L111.925,62.167 C113.284,61.480 114.504,60.741 115.577,59.983 C119.721,57.047 121.932,53.337 121.916,49.657 C121.916,46.624 120.466,42.297 118.370,40.492 C116.253,38.674 113.464,37.598 110.459,37.598 C107.265,37.598 104.300,38.674 101.777,40.364 C97.949,42.878 94.963,48.347 92.826,52.514 L92.515,53.143 C91.731,51.531 90.817,48.306 89.777,46.836 C87.973,44.299 85.813,42.032 83.252,40.368 C80.723,38.678 77.755,37.602 74.569,37.602 C71.403,37.602 68.488,38.927 66.311,40.952 C64.135,42.956 62.622,47.477 62.613,50.713 C62.613,52.589 63.154,54.572 64.303,56.356 C65.758,58.596 68.052,60.571 71.205,62.171 L49.757,62.171 L49.807,81.509 L90.082,81.509 L90.082,62.171 L94.980,62.171 L94.980,81.509 L135.286,81.509 L135.225,62.167 ZM72.589,56.125 C70.983,55.114 69.997,54.087 69.411,53.189 C68.844,52.290 68.639,50.704 68.639,49.922 C68.623,48.622 69.280,46.339 70.451,45.264 C71.600,44.186 73.137,43.522 74.530,43.522 L74.569,43.522 C76.370,43.541 78.137,44.137 79.919,45.304 C82.591,47.035 85.088,51.744 86.837,55.205 C87.748,56.944 88.434,58.786 88.901,60.584 C80.846,59.757 75.613,58.008 72.589,56.125 ZM100.172,51.902 C101.630,49.855 103.346,46.472 105.115,45.300 C106.888,44.137 108.682,43.537 110.463,43.519 L110.487,43.519 C111.982,43.519 113.407,44.095 114.390,44.960 C115.381,45.817 115.893,47.421 115.893,48.525 C115.876,49.851 115.184,52.902 112.060,55.159 C109.087,57.280 103.948,59.470 96.032,60.998 C96.790,57.909 98.243,54.625 100.172,51.902 ZM119.443,103.791 L111.425,102.458 L107.633,108.619 L94.574,85.682 L94.574,134.025 L129.476,134.025 L129.476,85.377 L108.902,85.377 L119.443,103.791 Z" class="cls-2"/>
  </g>
</svg>
