<svg xmlns="http://www.w3.org/2000/svg" xmlns:xlink="http://www.w3.org/1999/xlink" preserveAspectRatio="xMidYMid" width="31.727" height="49.996" viewBox="0 0 184.031 290">
  <defs>
    <style>
      .cls-1 {
        fill: #fff;
      }

      .cls-2 {
        fill: #155e88;
        fill-rule: evenodd;
      }
    </style>
  </defs>
  <g>
    <circle cx="92" cy="89" r="77" class="cls-1"/>
    <path d="M92.027,290.002 C92.027,290.002 0.007,141.810 0.007,91.355 C0.007,40.899 41.203,-0.002 92.027,-0.002 C142.835,-0.002 184.016,40.899 184.021,91.355 C184.021,141.810 92.027,290.002 92.027,290.002 ZM92.027,20.663 C52.772,20.663 20.824,52.375 20.824,91.355 C20.824,130.328 52.777,162.045 92.027,162.045 C131.283,162.045 163.209,130.328 163.209,91.355 C163.209,52.375 131.283,20.663 92.027,20.663 ZM130.174,131.000 L52.826,131.000 C49.077,131.000 46.000,127.911 46.000,124.171 L46.000,62.636 C46.000,58.885 49.087,55.807 52.826,55.807 L62.179,55.807 L62.179,50.853 C62.179,48.764 63.941,47.000 66.030,47.000 L71.531,47.000 C73.620,47.000 75.382,48.764 75.382,50.853 L75.382,55.807 L108.066,55.807 L108.066,50.853 C108.066,48.764 109.828,47.000 111.917,47.000 L117.418,47.000 C119.507,47.000 121.270,48.764 121.270,50.853 L121.270,55.807 L130.184,55.807 C133.923,55.807 137.000,58.885 137.000,62.636 L137.000,124.171 C137.000,127.922 133.913,131.000 130.174,131.000 ZM50.187,124.171 C50.187,125.710 51.400,126.923 52.938,126.923 L130.184,126.923 C131.723,126.923 132.935,125.710 132.935,124.171 L132.935,77.711 L50.187,77.711 L50.187,124.171 ZM71.317,57.896 L71.317,51.179 L66.254,51.179 L66.254,57.896 L66.254,63.288 L71.317,63.288 L71.317,57.896 ZM117.205,57.896 L117.205,51.179 L112.141,51.179 L112.141,57.896 L112.141,63.288 L117.205,63.288 L117.205,57.896 ZM133.047,62.636 C133.047,61.097 131.835,59.884 130.296,59.884 L121.270,59.884 L121.270,63.513 C121.270,65.602 119.507,67.366 117.419,67.366 L111.917,67.366 C109.828,67.366 108.066,65.602 108.066,63.513 L108.066,59.884 L75.495,59.884 L75.495,63.513 C75.495,65.602 73.732,67.366 71.644,67.366 L66.142,67.366 C64.053,67.366 62.291,65.602 62.291,63.513 L62.291,59.884 L52.938,59.884 C51.400,59.884 50.187,61.087 50.187,62.636 L50.187,73.644 L133.047,73.644 L133.047,62.636 ZM123.144,118.004 L116.542,118.004 C115.442,118.004 114.566,117.127 114.566,116.027 C114.566,114.926 115.442,114.049 116.542,114.049 L123.144,114.049 C124.245,113.927 125.121,114.814 125.121,116.027 C125.121,117.127 124.244,118.004 123.144,118.004 ZM123.144,104.345 L116.542,104.345 C115.442,104.345 114.566,103.469 114.566,102.368 C114.566,101.267 115.442,100.391 116.542,100.391 L123.144,100.391 C124.245,100.391 125.121,101.267 125.121,102.368 C125.121,103.469 124.244,104.345 123.144,104.345 ZM123.144,90.809 L116.542,90.809 C115.442,90.809 114.566,89.933 114.566,88.832 C114.566,87.731 115.442,86.854 116.542,86.854 L123.144,86.854 C124.245,86.742 125.121,87.731 125.121,88.832 C125.121,89.933 124.244,90.809 123.144,90.809 ZM104.113,118.004 L97.511,118.004 C96.411,118.004 95.535,117.127 95.535,116.027 C95.535,114.926 96.411,114.049 97.511,114.049 L104.113,114.049 C105.203,113.927 106.089,114.814 106.089,116.027 C106.089,117.127 105.213,118.004 104.113,118.004 ZM104.113,104.345 L97.511,104.345 C96.411,104.345 95.535,103.469 95.535,102.368 C95.535,101.267 96.411,100.391 97.511,100.391 L104.113,100.391 C105.203,100.391 106.089,101.267 106.089,102.368 C106.089,103.469 105.213,104.345 104.113,104.345 ZM104.113,90.809 L97.511,90.809 C96.411,90.809 95.535,89.933 95.535,88.832 C95.535,87.731 96.411,86.854 97.511,86.854 L104.113,86.854 C105.203,86.742 106.089,87.731 106.089,88.832 C106.089,89.933 105.213,90.809 104.113,90.809 ZM85.183,118.004 L78.582,118.004 C77.481,118.004 76.605,117.127 76.605,116.027 C76.605,114.926 77.481,114.049 78.582,114.049 L85.183,114.049 C86.172,113.927 87.160,114.814 87.160,116.027 C87.160,117.127 86.284,118.004 85.183,118.004 ZM85.183,104.345 L78.582,104.345 C77.481,104.345 76.605,103.469 76.605,102.368 C76.605,101.267 77.481,100.391 78.582,100.391 L85.183,100.391 C86.172,100.391 87.160,101.267 87.160,102.368 C87.160,103.469 86.284,104.345 85.183,104.345 ZM85.183,90.809 L78.582,90.809 C77.481,90.809 76.605,89.933 76.605,88.832 C76.605,87.731 77.481,86.854 78.582,86.854 L85.183,86.854 C86.172,86.742 87.160,87.731 87.160,88.832 C87.160,89.933 86.284,90.809 85.183,90.809 ZM66.152,118.004 L59.550,118.004 C58.450,118.004 57.574,117.127 57.574,116.027 C57.574,114.926 58.450,114.049 59.550,114.049 L66.152,114.049 C67.242,113.927 68.128,114.814 68.128,116.027 C68.128,117.127 67.252,118.004 66.152,118.004 ZM66.152,104.345 L59.550,104.345 C58.450,104.345 57.574,103.469 57.574,102.368 C57.574,101.267 58.450,100.391 59.550,100.391 L66.152,100.391 C67.242,100.391 68.128,101.267 68.128,102.368 C68.128,103.469 67.252,104.345 66.152,104.345 ZM66.152,90.809 L59.550,90.809 C58.450,90.809 57.574,89.933 57.574,88.832 C57.574,87.731 58.450,86.854 59.550,86.854 L66.152,86.854 C67.242,86.742 68.128,87.731 68.128,88.832 C68.128,89.933 67.252,90.809 66.152,90.809 Z" class="cls-2"/>
  </g>
</svg>
